<?xml version="1.0" encoding="UTF-8" standalone="no"?>
<svg xmlns:dc="http://purl.org/dc/elements/1.1/" xmlns:cc="http://creativecommons.org/ns#" xmlns:rdf="http://www.w3.org/1999/02/22-rdf-syntax-ns#" xmlns:svg="http://www.w3.org/2000/svg" xmlns="http://www.w3.org/2000/svg" xmlns:sodipodi="http://sodipodi.sourceforge.net/DTD/sodipodi-0.dtd" xmlns:inkscape="http://www.inkscape.org/namespaces/inkscape" version="1.1" width="203" height="177" viewBox="0 0 203.00 177.00" enable-background="new 0 0 203.00 177.00" xml:space="preserve" id="svg2" inkscape:version="0.48.4 r9939" sodipodi:docname="Foobar Schild fallende Helme.svg"><metadata id="metadata34"><rdf:RDF><cc:Work rdf:about=""><dc:format>image/svg+xml</dc:format><dc:type rdf:resource="http://purl.org/dc/dcmitype/StillImage"/><dc:title/></cc:Work></rdf:RDF></metadata><defs id="defs32"/><sodipodi:namedview pagecolor="#ffffff" bordercolor="#666666" borderopacity="1" objecttolerance="10" gridtolerance="10" guidetolerance="10" inkscape:pageopacity="0" inkscape:pageshadow="2" inkscape:window-width="1680" inkscape:window-height="988" id="namedview30" showgrid="false" inkscape:zoom="1.3333333" inkscape:cx="101.5" inkscape:cy="88.5" inkscape:window-x="-8" inkscape:window-y="-8" inkscape:window-maximized="1" inkscape:current-layer="svg2"/>
	<line fill="none" stroke-width="5" stroke-linejoin="round" stroke="#000000" stroke-opacity="1" x1="109.5" y1="163.7" x2="109.5" y2="90.1002" id="line4"/>
	<line fill="none" stroke-width="3" stroke-linecap="round" stroke-linejoin="round" stroke="#000000" stroke-opacity="1" x1="109.5" y1="99.7001" x2="139.131" y2="99.7001" id="line6"/>
	<line fill="none" stroke-width="3" stroke-linecap="round" stroke-linejoin="round" stroke="#000000" stroke-opacity="1" x1="109.5" y1="134.9" x2="163.9" y2="134.9" id="line8"/>
	<line fill="none" stroke-width="3" stroke-linecap="round" stroke-linejoin="round" stroke="#000000" stroke-opacity="1" x1="109.5" y1="115.7" x2="147.9" y2="115.7" id="line10"/>
	<line fill="none" stroke-width="3" stroke-linecap="round" stroke-linejoin="round" stroke="#000000" stroke-opacity="1" x1="111.05" y1="154.1" x2="170.3" y2="154.1" id="line12"/>
	<path fill="#000000" fill-opacity="1" stroke-linejoin="round" stroke="#000000" stroke-opacity="1" d="M 96.4674,128.265C 96.0805,128.424 95.6013,128.047 95.1222,127.671L 93.5921,126.454C 90.9822,127.965 87.8856,127.941 85.2025,126.565C 83.8723,125.827 82.3775,123.5 81.8939,122.214L 81.4102,120.927C 80.8084,119.386 81.915,115.935 82.9753,115.06C 83.9923,114.404 85.0094,113.748 85.4267,113.299C 85.844,112.849 85.6616,112.607 85.766,112.372C 85.8704,112.138 86.2615,111.911 86.6526,111.685C 86.6526,111.685 88.1251,112.828 88.6621,113.596L 92.5883,119.94C 93.611,121.113 94.6337,122.286 95.4428,123.416C 96.252,124.546 96.8476,125.632 96.9982,126.523C 97.1488,127.413 96.8542,128.107 96.4674,128.265 Z " id="path14"/>
	<path fill="#000000" fill-opacity="1" stroke-linejoin="round" stroke="#000000" stroke-opacity="1" d="M 91.8959,151.424C 91.7749,151.824 91.1803,151.958 90.5856,152.092L 88.6766,152.512C 88.2021,155.49 86.2303,157.878 83.4697,159.091C 82.0579,159.657 79.3097,159.349 78.0063,158.913L 76.7029,158.476C 75.1276,157.971 73.1483,154.935 73.1385,153.561C 73.271,152.358 73.4036,151.155 73.3182,150.547C 73.2329,149.94 72.9296,149.929 72.8135,149.7C 72.6974,149.471 72.7685,149.024 72.8397,148.578C 72.8397,148.578 74.6552,148.157 75.5904,148.225L 82.9893,149.181C 84.5447,149.128 86.1002,149.074 87.4872,149.159C 88.8742,149.244 90.0929,149.467 90.8785,149.912C 91.6642,150.357 92.0169,151.023 91.8959,151.424 Z " id="path16"/>
	<path fill="#000000" fill-opacity="1" stroke-linejoin="round" stroke="#000000" stroke-opacity="1" d="M 100.302,96.3102C 100.108,95.9397 100.439,95.4276 100.77,94.9156L 101.839,93.2792C 100.093,90.8208 99.8284,87.7354 100.95,84.9361C 101.561,83.5432 103.739,81.8389 104.975,81.238L 106.211,80.637C 107.69,79.8948 111.229,80.6763 112.198,81.6508C 112.946,82.6026 113.694,83.5543 114.18,83.9282C 114.666,84.302 114.89,84.0978 115.134,84.18C 115.377,84.2621 115.638,84.6306 115.9,84.999C 115.9,84.999 114.899,86.5712 114.184,87.1772L 108.232,91.6752C 107.158,92.8023 106.085,93.9295 105.035,94.84C 103.986,95.7505 102.959,96.4444 102.087,96.677C 101.215,96.9095 100.496,96.6806 100.302,96.3102 Z " id="path18"/>
	<line fill="none" stroke-linejoin="round" stroke="#000000" stroke-opacity="1" x1="83.9002" y1="112.5" x2="85.6564" y2="102.9" id="line20"/>
	<line fill="none" stroke-linejoin="round" stroke="#000000" stroke-opacity="1" x1="88.5441" y1="110.719" x2="90.3003" y2="101.119" id="line22"/>
	<line fill="none" stroke-linejoin="round" stroke="#000000" stroke-opacity="1" x1="91.7441" y1="115.7" x2="93.5003" y2="106.1" id="line24"/>
	<path fill="none" stroke-width="15" stroke-linejoin="round" stroke="#FF0000" stroke-opacity="1" d="M 103.101,22.9002L 19.9005,166.9L 183.101,166.9L 103.101,22.9002 Z " id="path26"/>
	<path fill="none" stroke-linecap="round" stroke-linejoin="round" stroke="#000000" stroke-opacity="1" d="M 103.1,0.5L 0.69991,176.5L 202.3,176.5L 103.1,0.5 Z " id="path28"/>
</svg>