<?xml version="1.0" encoding="UTF-8" standalone="no"?>
<!-- Created with Inkscape (http://www.inkscape.org/) -->

<svg
   xmlns:dc="http://purl.org/dc/elements/1.1/"
   xmlns:cc="http://creativecommons.org/ns#"
   xmlns:rdf="http://www.w3.org/1999/02/22-rdf-syntax-ns#"
   xmlns:svg="http://www.w3.org/2000/svg"
   xmlns="http://www.w3.org/2000/svg"
   xmlns:sodipodi="http://sodipodi.sourceforge.net/DTD/sodipodi-0.dtd"
   xmlns:inkscape="http://www.inkscape.org/namespaces/inkscape"
   width="131.79465mm"
   height="103.39009mm"
   viewBox="0 0 466.98891 366.34284"
   id="svg2"
   version="1.1"
   inkscape:version="0.91 r13725"
   sodipodi:docname="logowall.svg">
  <defs
     id="defs4" />
  <sodipodi:namedview
     id="base"
     pagecolor="#272726"
     bordercolor="#666666"
     borderopacity="1.0"
     inkscape:pageopacity="0"
     inkscape:pageshadow="2"
     inkscape:zoom="1.4142136"
     inkscape:cx="94.775226"
     inkscape:cy="165.37162"
     inkscape:document-units="px"
     inkscape:current-layer="layer1"
     showgrid="false"
     fit-margin-top="0"
     fit-margin-left="0"
     fit-margin-right="0"
     fit-margin-bottom="0"
     inkscape:window-width="1916"
     inkscape:window-height="1048"
     inkscape:window-x="1920"
     inkscape:window-y="14"
     inkscape:window-maximized="0" />
  <metadata
     id="metadata7">
    <rdf:RDF>
      <cc:Work
         rdf:about="">
        <dc:format>image/svg+xml</dc:format>
        <dc:type
           rdf:resource="http://purl.org/dc/dcmitype/StillImage" />
        <dc:title></dc:title>
      </cc:Work>
    </rdf:RDF>
  </metadata>
  <g
     inkscape:label="Layer 1"
     inkscape:groupmode="layer"
     id="layer1"
     transform="translate(-0.33609044,0.13558148)">
    <path
       style="fill:#ffffff;fill-opacity:0.01960784"
       d="m 427.99369,178.44438 c -4.93841,-3.33102 -7.53404,-8.71655 -8.0161,-16.63224 -0.35924,-5.89879 0.23045,-10.34402 2.7676,-20.86298 2.26591,-9.39436 2.56881,-11.27445 2.71319,-16.84027 l 0.1255,-4.83869 -0.70124,-1.28843 c -0.3857,-0.70863 -0.76847,-1.28104 -0.85059,-1.27202 -0.25454,0.028 -3.34388,3.69304 -5.22086,6.19385 -4.09291,5.45317 -6.41581,10.83211 -6.8388,15.83595 l -0.16367,1.93615 -1.3207,0.27419 c -2.66059,0.55232 -2.72419,0.53415 -3.09934,-0.88505 -0.50135,-1.89663 -0.26458,-6.63396 0.43567,-8.71694 0.94968,-2.82501 3.08118,-6.78196 6.12792,-11.37592 3.38225,-5.09987 5.58729,-9.12739 6.39919,-11.68822 0.66455,-2.09599 0.74446,-2.14454 3.89741,-2.36835 l 2.18826,-0.15533 0.78235,1.99249 c 1.86325,4.74531 2.54907,8.08234 2.77221,13.48873 0.25489,6.17651 -0.39663,11.69038 -2.97059,25.14016 -2.23093,11.65727 -2.20359,11.39078 -1.54047,15.01623 1.14523,6.26132 2.71996,9.8883 5.67455,13.06992 0.71201,0.76674 0.73404,0.86179 0.55634,2.40031 -0.1018,0.88109 -0.28188,1.85779 -0.40021,2.17047 -0.33854,0.89454 -1.38984,0.70629 -3.31762,-0.59401 z m -22.6498,-25.0485 -1.10495,-0.0982 0.13583,-1.01268 c 0.2084,-1.55378 1.20677,-2.84541 2.803,-3.62639 1.23815,-0.60575 1.81358,-0.70193 5.382,-0.89958 2.19761,-0.12172 4.42202,-0.22564 4.94315,-0.23093 l 0.94748,-0.01 0,2.3955 c 0,2.83147 0.72491,2.43896 -5.82752,3.1555 -4.60764,0.50389 -5.0566,0.52401 -7.27899,0.32644 z m 22.80881,-3.2353 c -0.20895,-0.8326 0.059,-2.48805 0.55929,-3.45555 0.59896,-1.15825 2.29198,-2.89014 4.39298,-4.49384 2.16532,-1.65282 4.04433,-3.5811 4.67164,-4.79416 1.35069,-2.61198 2.26564,-11.25102 1.66713,-15.74133 -0.81523,-6.11647 -3.98059,-12.92574 -8.10787,-17.44166 -0.6946,-0.75998 -1.26289,-1.49394 -1.26289,-1.63102 0,-0.13708 1.21262,-1.37183 2.69473,-2.743891 1.89976,-1.75873 2.73023,-2.38284 2.81518,-2.11565 0.3344,1.05181 4.55096,8.917811 5.49813,10.256751 2.04935,2.897 4.76935,4.96181 7.44074,5.64839 0.62303,0.16012 1.56143,0.4559 2.08536,0.65727 1.37914,0.53008 3.27276,0.45215 6.452,-0.26552 4.75625,-1.07366 6.27036,-0.76855 7.36042,1.48322 0.90393,1.86724 0.72277,2.19675 -1.64447,2.99092 -4.15104,1.39262 -9.6207,1.45276 -15.10259,0.16604 -1.68874,-0.39638 -2.30602,-0.45329 -2.52665,-0.23296 -0.33142,0.331 -0.34934,2.50866 -0.05,6.07835 0.16793,2.00254 0.11032,2.87463 -0.34756,5.26239 -1.39181,7.25808 -4.11145,12.56996 -8.57271,16.74396 -1.75973,1.64643 -2.39951,2.08075 -3.55571,2.4138 -0.77544,0.22339 -2.06138,0.73306 -2.85764,1.13264 l -1.44773,0.7265 -0.16181,-0.64465 z m -14.30987,-44.5834 c -0.38021,-0.11448 -1.09084,-0.45508 -1.57917,-0.75689 -0.72855,-0.45026 -0.88788,-0.70012 -0.88788,-1.39234 l 0,-0.84361 1.7055,-0.16697 c 4.26045,-0.41709 7.70062,-1.824 11.08898,-4.535041 3.61475,-2.89216 6.74565,-7.06086 11.84036,-15.76518 1.63966,-2.80137 2.67397,-4.31983 2.94635,-4.32548 0.51073,-0.0106 1.67086,1.31824 1.88067,2.15413 0.33808,1.34702 -1.60338,7.83398 -3.45638,11.54882 -3.5792,7.1754 -9.58742,12.058481 -17.03586,13.845621 -2.07238,0.49723 -5.25319,0.61313 -6.50257,0.23694 z m -125.89381,-3.53628 -40.9317,-0.12845 -0.82285,-0.5869 c -1.03498,-0.73821 -2.61543,-3.948501 -3.31833,-6.740381 -1.2132,-4.81875 -1.91598,-10.0935 -2.30598,-17.30754 -0.1465,-2.70983 -0.50289,-8.56533 -0.79199,-13.01224 -0.57392,-8.82798 -0.53264,-14.35324 0.16896,-22.6135 1.05876,-12.46526 2.98333,-19.94158 5.56962,-21.63618 0.7114,-0.46613 8.17033,-0.91997 32.37884,-1.9701 22.77231,-0.98783 47.3753,-0.17567 61.20545,2.02044 3.11898,0.49526 3.69215,0.93369 5.18966,3.96967 1.51364,3.0687 2.38113,6.55669 2.60684,10.48161 0.24558,4.27039 0.14513,5.28079 -0.54337,5.46549 -0.88029,0.23616 -3.6969,0.17424 -4.19477,-0.0922 -0.71967,-0.38516 -1.23604,-2.02109 -1.65535,-5.2444 -0.88958,-6.83832 -2.09807,-8.44605 -7.26665,-9.6673 -5.77319,-1.36411 -14.55286,-1.87341 -32.02347,-1.85765 -16.97857,0.0153 -30.09227,0.53779 -43.25021,1.72318 -3.2516,0.29293 -4.18088,0.46834 -5.18977,0.97958 -2.61435,1.32479 -4.56726,4.41972 -5.76383,9.13441 -0.91686,3.61255 -1.1022,5.98421 -1.37386,17.5805 -0.39057,16.67227 0.24404,24.7456 2.62391,33.381 1.43818,5.21847 2.63334,6.98994 5.73741,8.50403 3.45165,1.68364 2.09991,1.62366 36.35176,1.61317 29.68715,-0.009 39.49024,-0.19503 43.343,-0.82208 3.58535,-0.58353 5.64026,-4.30191 6.82003,-12.34088 0.55033,-3.74999 0.61627,-3.97656 1.34744,-4.62986 1.48288,-1.32495 3.42632,-1.1655 4.25319,0.34896 0.74301,1.36088 0.58763,5.76111 -0.36397,10.30695 -1.22689,5.86093 -2.35125,9.82843 -3.00573,10.60624 -1.27731,1.517991 -5.04326,2.424861 -10.70426,2.577641 -1.73708,0.0469 -21.57758,0.0274 -44.09002,-0.0432 z m 115.21517,-4.147261 c -1.64626,-0.40684 -2.63614,-0.94055 -3.82632,-2.06304 l -0.96985,-0.91469 0.59137,-0.47887 c 0.91555,-0.74135 2.89322,-1.2379 6.47878,-1.62666 1.80654,-0.19588 3.79629,-0.52229 4.42162,-0.72536 6.8724,-2.23169 11.15777,-4.97837 16.71276,-10.71191 2.71846,-2.80582 8.31392,-9.74584 8.72826,-10.82556 0.084,-0.2189 0.53872,-0.34453 1.24697,-0.34453 1.30346,0 1.30128,-0.15024 0.0527,3.6554 -2.81928,8.59299 -8.63665,15.70476 -16.94796,20.71903 -1.86891,1.12752 -2.22286,1.23576 -7.9323,2.42577 -6.42438,1.33903 -6.64701,1.3622 -8.55604,0.89042 z m -122.07386,-5.32513 c 0.24345,-0.63445 9.5144,-13.50394 11.57682,-16.07041 4.24611,-5.28385 10.44968,-11.78901 12.79597,-13.41804 1.74607,-1.2123 4.83292,-2.20886 7.8491,-2.53399 3.59206,-0.38722 33.12419,-0.37316 55.99488,0.0266 19.40288,0.33919 18.871,0.29456 24.40681,2.04808 1.7144,0.54306 3.16511,0.93937 3.22377,0.8807 0.0587,-0.0587 -0.20334,-0.51315 -0.58227,-1.00995 -0.89144,-1.16872 -2.87185,-2.46882 -4.94271,-3.2448 -3.45887,-1.29607 -4.63132,-1.37629 -24.37959,-1.66816 -17.80776,-0.26319 -25.81822,-0.45216 -47.12199,-1.1116 l -9.98026,-0.30893 -1.48153,-0.73886 c -2.6096,-1.30142 -4.69532,-3.5962 -14.98564,-16.48771 -5.46497,-6.8464 -9.9363,-12.50904 -9.9363,-12.58365 0,-0.25438 5.68363,0.20926 6.04432,0.49306 0.19765,0.15552 2.85242,3.61803 5.8995,7.69447 6.56237,8.77928 8.52189,11.15599 11.5405,13.99759 2.98933,2.81403 4.03832,3.50675 5.90533,3.89967 3.59773,0.75716 13.37989,0.93409 35.25068,0.63758 25.35549,-0.34375 33.85429,-0.16097 37.81526,0.81329 3.16294,0.77797 7.04688,2.12668 9.47417,3.28993 1.02446,0.49096 1.90691,0.8484 1.96099,0.79431 0.23579,-0.23577 -0.75359,-1.64515 -1.9222,-2.73826 -3.66552,-3.42866 -9.12457,-5.56465 -15.95592,-6.24316 -2.73689,-0.27183 -18.44075,-0.39723 -28.67746,-0.22899 -3.1962,0.0525 -9.56336,0.0929 -14.14923,0.0897 -7.49014,-0.005 -8.65444,-0.0628 -11.45074,-0.56612 -3.70381,-0.66663 -7.84508,-1.99588 -10.28186,-3.30024 -1.46117,-0.78213 -1.86139,-1.13931 -2.32351,-2.07364 -1.32937,-2.68778 -1.46907,-10.0058 -0.30249,-15.84648 l 0.26494,-1.32649 2.0034,0 c 1.10188,0 2.02146,0.0284 2.04353,0.0632 0.0221,0.0348 0.112,2.8488 0.19986,6.25346 0.17485,6.7762 0.25903,7.19719 1.78724,8.93772 1.11417,1.26896 1.81551,1.58904 4.17748,1.90649 5.00267,0.67236 8.83463,0.78257 27.05923,0.77823 11.24692,-0.003 20.53723,0.10499 22.36084,0.25913 8.5533,0.723 15.39799,2.43151 21.35706,5.33096 2.88944,1.40589 3.21139,1.63966 5.27206,3.82815 3.87696,4.1174 7.6311,9.61999 9.77831,14.33239 l 0.97858,2.14766 -0.0915,-1.5396 c -0.20404,-3.43364 -5.26053,-11.80433 -13.17527,-21.81078 -1.47469,-1.86442 -2.68123,-3.47818 -2.68123,-3.58615 0,-0.36344 1.11758,-0.98294 1.77323,-0.98294 1.15412,0 4.13042,2.00906 5.48304,3.70116 6.9016,8.63377 11.21316,15.66556 13.22288,21.56533 0.44971,1.32017 1.08569,2.68217 1.41327,3.02667 l 0.59563,0.62636 0.76429,-0.7643 0.76431,-0.7643 -0.65365,-2.26238 c -1.45973,-5.05227 -3.05203,-8.17635 -9.19017,-18.03121 -4.68342,-7.5193 -4.71267,-7.60266 -2.66683,-7.60266 0.8856,0 1.4253,0.23162 2.93788,1.26088 1.01915,0.69348 2.03339,1.4041 2.25389,1.57915 0.64588,0.5128 5.70651,9.09393 7.46205,12.65314 0.88715,1.79866 2.02078,4.59135 2.51912,6.20597 1.321,4.27988 1.32538,4.28467 2.76321,3.02223 0.92009,-0.80783 0.9356,-0.8516 0.78857,-2.22395 -0.3429,-3.20094 -2.18236,-8.94574 -4.3636,-13.62789 -0.60829,-1.30573 -1.10598,-2.5262 -1.10598,-2.71216 0,-0.18596 0.32924,-0.70656 0.7316,-1.15691 0.70437,-0.7883 0.75847,-0.80492 1.45282,-0.44615 1.17472,0.60696 3.18938,2.80933 4.04819,4.42535 0.44019,0.82826 1.45149,3.69464 2.24733,6.36973 0.79586,2.67509 1.53786,4.8638 1.64891,4.8638 0.11104,0 0.57783,-0.47197 1.03731,-1.04883 2.12034,-2.66196 2.88922,-3.03254 3.94969,-1.9037 0.68582,0.73001 0.69755,1.68476 0.044,3.58419 -0.67524,1.96266 -0.64903,2.5064 0.13821,2.86509 0.35395,0.16127 0.80877,0.29322 1.01068,0.29322 0.49644,0 0.46171,0.65659 -0.12495,2.36169 -1.73539,5.044 -5.47746,9.49426 -11.38319,13.53748 -5.6101,3.84079 -12.88888,6.2415 -19.79178,6.52778 -3.42412,0.14201 -5.41631,-0.25544 -7.11704,-1.41987 -1.30674,-0.89469 -1.35358,-1.67965 -0.14866,-2.49165 1.31634,-0.88709 3.05619,-1.30148 6.68854,-1.59308 11.28046,-0.90555 19.81689,-5.00468 26.01342,-12.49147 0.97251,-1.175 0.99444,-1.2328 0.29313,-0.77264 -7.6948,5.04897 -16.07881,8.73516 -22.43087,9.86217 -1.90568,0.33811 -3.32067,0.40888 -6.19029,0.30958 -3.94154,-0.13639 -6.29457,-0.60977 -9.01818,-1.81428 -1.50613,-0.66608 -1.69826,-1.0112 -1.58785,-2.85219 l 0.0641,-1.06941 -20.71851,-0.12741 c -11.39519,-0.0701 -23.38569,-0.12702 -26.64556,-0.12655 -7.53901,0.001 -14.87078,0.486 -21.1081,1.39607 -2.94401,0.42955 -3.4594,0.81296 -4.44375,3.30576 -0.66319,1.67947 -0.79324,4.93257 -0.38457,9.61995 0.25446,2.91864 -0.0553,4.63726 -0.94871,5.263 -0.32544,0.22794 -1.13229,0.3682 -2.11805,0.3682 -1.89248,0 -1.89175,0.001 -2.3118,-3.42395 -0.61522,-5.01651 -0.23559,-10.46954 0.98402,-14.13446 0.48905,-1.46958 0.69842,-1.75414 1.95011,-2.65046 2.6383,-1.88925 7.04586,-3.15151 13.20751,-3.78246 1.50988,-0.15461 7.81506,-0.26613 14.65455,-0.2592 6.60245,0.007 18.42846,-0.0621 26.28002,-0.15281 9.14081,-0.10565 16.81227,-0.063 21.32807,0.11865 3.87887,0.15601 7.10146,0.23467 7.16133,0.17482 0.25148,-0.25148 -2.70251,-1.67067 -4.46925,-2.14716 -3.47861,-0.93819 -5.07305,-1.03786 -20.35651,-1.27253 -8.33794,-0.12802 -21.86814,-0.36615 -30.06711,-0.52917 -22.6493,-0.45033 -24.71521,-0.44337 -26.65614,0.0898 -3.42934,0.94209 -6.4287,2.38542 -8.96961,4.31628 -2.56716,1.95081 -5.52719,5.27486 -12.56884,14.11452 l -7.59802,9.53809 -2.64001,0 c -2.22829,0 -2.6176,-0.0584 -2.49636,-0.37434 z"
       id="path2161-3-2"
       inkscape:connector-curvature="0" />
    <path
       d="m 77.18086,179.1681 c -4.30814,-2.09327 -6.76525,-6.29218 -6.12041,-10.45909 0.71215,-4.60193 3.14683,-7.54295 8.01034,-9.67635 2.31852,-1.01702 3.45885,-1.24356 6.26039,-1.24386 1.88402,-1.8e-4 3.4255,-0.15571 3.4255,-0.34563 0,-0.18992 -0.74416,-0.59143 -1.65369,-0.89221 -0.90953,-0.30083 -1.64101,-0.7774 -1.62551,-1.05911 0.0155,-0.2817 2.83838,-4.30405 6.27308,-8.93852 l 6.24489,-8.42639 10.97253,-0.11598 c 6.03488,-0.0638 10.97252,-0.0293 10.97252,0.0768 0,0.10601 -1.54147,2.33198 -3.4255,4.94665 -6.36039,8.82691 -11.45681,16.18704 -11.61014,16.76707 -0.0942,0.3565 0.11501,0.48289 0.54796,0.33092 1.3707,-0.48104 3.4997,1.01077 4.35061,3.04847 1.47894,3.54176 0.0613,7.88195 -3.40635,10.42865 -3.07075,2.25521 -5.80697,3.30493 -9.1946,3.52731 -4.03452,0.26489 -5.13843,-0.53837 -5.13843,-3.73904 0,-1.31815 -0.25773,-2.30334 -0.68803,-2.62992 -0.9935,-0.75412 -1.67438,-0.17421 -1.67438,1.42607 0,2.3426 -2.00666,4.4188 -5.93562,6.14122 -3.30811,1.45027 -4.90029,1.65163 -6.58516,0.83299 z m 83.62935,-0.59029 c -1.03947,-0.4388 -2.4007,-1.30497 -3.02496,-1.92493 l -1.13503,-1.12716 1.25315,-1.65381 c 1.18566,-1.56477 1.59256,-2.68771 0.97389,-2.68771 -0.15359,0 -1.15705,0.6872 -2.22992,1.52707 -4.46753,3.49741 -10.63937,5.10947 -15.05446,3.93217 -3.83114,-1.02159 -6.7018,-2.88423 -7.88231,-5.11454 -2.01966,-3.81565 -0.95366,-7.28694 3.57971,-11.6567 2.6398,-2.54454 2.68352,-2.62438 1.31327,-2.39834 -0.7796,0.12861 -1.84269,0.34508 -2.36242,0.48107 -0.81325,0.21278 -1.83403,-1.114 -7.32347,-9.51876 -3.50818,-5.37134 -6.44938,-9.93687 -6.536,-10.14567 -0.088,-0.21203 5.26498,-0.37961 12.12579,-0.37961 l 12.28328,0 4.43353,5.50953 c 2.43844,3.03025 5.4441,6.82212 6.67925,8.42639 1.23514,1.60423 2.50075,2.91696 2.81245,2.91713 1.46334,0 6.75918,2.79122 9.03716,4.7616 3.47262,3.00372 4.70709,5.65872 4.71754,10.14625 0.009,3.77457 -0.43938,4.89715 -2.66039,6.66387 -3.81186,3.03218 -7.3971,3.76297 -11.00006,2.24215 z M 29.09289,176.61894 c -6.55677,-2.46596 -12.08989,-8.16576 -13.87518,-14.2932 -0.89012,-3.05505 -0.80397,-4.09215 0.57718,-6.94841 1.70813,-3.53242 3.51594,-5.45103 7.30992,-7.75779 3.07633,-1.87045 3.88163,-2.83817 2.84802,-3.42239 -0.23992,-0.13561 -1.22919,0.18131 -2.19838,0.70434 l -1.76217,0.95086 -1.53077,-1.66755 c -1.84402,-2.00884 -2.57716,-4.06489 -2.57716,-7.22763 0,-6.65865 4.24657,-11.30713 12.74427,-13.95051 4.90623,-1.52617 7.34287,-1.73085 10.84269,-0.91083 4.69417,1.09987 7.33302,3.09852 9.36093,7.09 1.00812,1.98421 1.14317,2.78112 1.00005,5.90107 l -0.16546,3.60704 6.14226,-0.17075 c 20.39844,-0.5671 27.697,-0.55242 27.55008,0.0555 -0.1642,0.67939 -13.32392,18.78654 -14.79306,20.35455 -0.932,0.99473 -1.08087,1.00906 -10.85746,1.04591 l -9.91249,0.0373 -2.07695,-2.01044 c -2.4565,-2.37784 -3.62774,-2.09636 -1.75864,0.42263 1.50219,2.0245 2.15661,4.12937 2.16,6.94741 0.002,1.74086 -0.34057,2.70881 -1.68277,4.75331 -2.17459,3.31246 -3.67177,4.74067 -6.58303,6.27969 -3.08225,1.62945 -6.79484,1.70186 -10.76188,0.20992 z m 176.46939,-3.74059 c -4.53219,-0.71676 -8.70789,-3.31506 -10.64307,-6.62263 -0.86339,-1.47564 -1.04387,-2.52263 -1.08711,-6.30664 -0.0285,-2.49552 -0.24115,-4.61683 -0.47251,-4.71406 -0.40233,-0.16909 -1.75795,1.93402 -2.2726,3.52572 -0.21921,0.67799 -1.00083,0.75622 -7.55659,0.75622 l -7.31207,0 -8.32061,-10.91107 -8.32061,-10.91107 11.48364,-0.26464 c 6.316,-0.14558 13.76522,-0.29142 16.55383,-0.3241 4.85833,-0.057 5.07872,-0.10007 5.27501,-1.0317 1.07503,-5.10257 1.52145,-6.49162 2.79548,-8.69831 1.89801,-3.28743 5.09072,-6.18019 8.35614,-7.57103 2.26469,-0.96462 3.23917,-1.10839 7.56082,-1.11545 4.59057,-0.007 5.19477,0.0932 8.09049,1.34799 4.03028,1.74646 6.68523,3.96497 8.25366,6.89688 1.14078,2.13245 1.23275,2.67995 1.02792,6.11905 -0.27694,4.64939 -1.44922,7.5934 -4.90261,12.31205 -1.40102,1.91435 -2.54732,3.64534 -2.54732,3.84663 0,0.69842 0.77529,0.35916 2.12617,-0.9304 0.74688,-0.71297 1.61241,-1.29634 1.92333,-1.29634 0.82637,0 3.96688,3.3168 4.73733,5.0032 0.38965,0.85297 0.66282,2.94177 0.66282,5.06873 0,3.16239 -0.18008,3.94742 -1.43009,6.23526 -1.63725,2.99656 -4.54851,5.64434 -7.85883,7.14749 -4.70759,2.13767 -11.51422,3.16701 -16.12262,2.43822 z m -95.72433,-38.39841 c -1.35506,-0.63183 -2.08523,-0.73822 -2.96556,-0.43212 -2.58629,0.89931 -10.93014,0.17032 -13.58125,-1.18659 -0.69749,-0.35697 -1.45567,-0.22656 -3.38903,0.58294 -1.75071,0.73303 -2.88727,0.95571 -3.82604,0.74957 -1.82855,-0.4015 -3.96704,-1.39954 -5.19284,-2.42351 -1.01979,-0.85187 -1.02611,-0.85162 -2.4317,0.0988 -1.2795,0.86515 -1.57689,0.9033 -3.22989,0.41425 -2.69178,-0.7964 -5.61753,-2.45635 -7.15839,-4.06137 -1.05611,-1.1001 -1.49169,-2.15908 -1.94488,-4.7284 -0.5234,-2.96735 -0.72527,-3.37766 -1.94581,-3.9549 C 54.46854,114.94913 35.83801,98.801141 28.1477,88.314091 22.44274,80.534421 17.53614,70.531771 13.15628,57.752381 c -0.81455,-2.37666 -1.69412,-4.90457 -1.95459,-5.61757 -1.41786,-3.88119 -3.30751,-16.59129 -3.91892,-26.3594 -0.35702,-5.704 -0.55022,-10.46346 -0.42931,-10.57658 0.1209,-0.11312 6.38996,-0.28113 13.93125,-0.37336 l 13.71141,-0.16769 -0.32055,4.91063 c -0.35347,5.41466 0.21524,11.44815 1.72556,18.3064 1.00033,4.54245 5.73758,18.20403 6.75259,19.47357 0.50112,0.62679 0.72081,-0.0188 1.4163,-4.16203 1.04014,-6.19653 2.54921,-10.56663 5.73133,-16.59736 5.22004,-9.89298 12.48496,-17.16145 23.12717,-23.13849 13.16401,-7.39336 31.59246,-10.38527 45.35829,-7.36405 12.62684,2.77124 22.52824,8.23529 34.04716,18.78877 8.99635,8.24234 14.33615,16.13659 18.0081,26.62281 0.99424,2.83933 2.01223,5.10268 2.2622,5.02968 0.24997,-0.073 0.69956,-1.28573 0.99909,-2.69494 0.29952,-1.40921 0.88979,-3.7123 1.3117,-5.11797 2.47785,-8.25545 3.07596,-22.18968 1.28834,-30.01439 -0.56321,-2.46525 -0.91066,-4.58595 -0.77211,-4.71266 0.13855,-0.12672 12.37336,-0.32446 27.18849,-0.43943 l 26.93658,-0.20904 0,4.05746 c -0.003,20.09116 -7.48575,44.80475 -18.87023,62.31485 -8.9065,13.6988 -18.19846,24.160749 -28.32828,31.895149 -7.46175,5.69727 -12.09707,8.1811 -25.65366,13.74648 -5.06124,2.07778 -5.55125,2.38177 -5.85098,3.62988 -0.60071,2.50137 -1.72718,4.12457 -3.18491,4.58932 -2.30346,0.73441 -6.3034,0.54268 -8.32135,-0.39887 l -1.81799,-0.84823 -1.28463,1.00954 c -2.16704,1.70304 -7.19131,1.86911 -10.49184,0.34681 -1.38647,-0.63948 -1.58241,-0.63994 -2.36241,-0.006 -2.19779,1.78764 -10.39851,2.27403 -13.55176,0.80373 z m 10.88438,-3.64695 c 1.1509,-0.9054 1.32946,-1.39156 1.49497,-4.0704 0.25706,-4.16072 -1.24723,-8.43115 -3.39108,-9.62673 -1.84969,-1.03154 -4.28855,-1.05959 -6.44544,-0.0742 l -1.65368,0.75554 -0.23624,6.57332 -0.23625,6.57331 1.65369,0.40399 c 0.90953,0.2222 2.97069,0.42409 4.58036,0.44866 2.44303,0.0373 3.14265,-0.12524 4.23367,-0.98354 z m 11.85113,0.13875 c 1.05418,-0.3361 1.51122,-0.80858 1.72419,-1.7825 0.4069,-1.86071 0.34826,-8.24224 -0.0814,-8.86027 -0.93582,-1.34602 -6.57701,-1.97777 -7.59945,-0.85105 -0.29469,0.32476 -0.579,2.58998 -0.64551,5.14306 -0.10231,3.92734 0.003,4.68557 0.75438,5.44518 1.26709,1.28053 3.55873,1.6354 5.84781,0.90558 z m -43.48559,-0.62433 c 2.16678,-1.38802 3.08996,-7.92921 1.36558,-9.67577 -1.37947,-1.39724 -4.14686,-1.93274 -6.1104,-1.1824 -2.00372,0.76569 -2.14557,0.9783 -2.68868,4.03031 -0.66737,3.75018 0.0375,5.60398 2.52339,6.63616 2.40601,0.99902 3.57839,1.0448 4.91011,0.1917 z m 17.0972,-1.46101 c 0.51321,-1.48375 0.56443,-2.98106 0.23624,-6.90624 -0.41185,-4.92591 -0.44108,-5.01884 -1.70563,-5.42289 -1.01814,-0.32532 -1.79743,-0.19226 -3.73492,0.63769 -3.94573,1.69021 -4.92659,2.78682 -5.59274,6.25266 -0.31841,1.65663 -0.50556,3.78167 -0.41588,4.72229 0.15478,1.62358 0.2708,1.73685 2.28922,2.2351 1.16939,0.28866 3.50818,0.49133 5.1973,0.45035 l 3.07113,-0.0745 z m 40.10494,1.31735 c 2.07111,-1.2023 1.90916,-9.80583 -0.2071,-11.00202 -0.22715,-0.12839 -1.78793,0.18816 -3.4684,0.70345 -3.54965,1.08848 -4.25418,1.97195 -4.19314,5.25813 0.0563,3.03087 0.51548,4.23101 1.85627,4.85155 1.30225,0.60269 5.09428,0.72183 6.01237,0.18889 z m -68.82887,-2.55574 c 0.76948,-2.11412 0.83185,-6.82565 0.0992,-7.49581 -0.31099,-0.28449 -2.1497,-0.61023 -4.08599,-0.72389 -3.26126,-0.19141 -3.56152,-0.13662 -4.0768,0.74397 -0.56329,0.96258 -0.36574,3.31612 0.49175,5.85873 0.45242,1.34155 1.65485,2.25335 3.73302,2.83082 2.54695,0.7077 3.21646,0.49602 3.83879,-1.21382 z m 31.81488,-22.25425 c 0.13498,-0.77241 0.19777,-2.18221 0.13952,-3.13288 -0.10109,-1.65011 -0.0423,-1.72848 1.29661,-1.72848 1.27578,0 1.4389,0.16828 1.8052,1.86235 0.75855,3.50804 1.50357,2.11064 4.9095,-9.208409 l 1.17024,-3.8891 -0.77507,-6.48181 c -0.42629,-3.565 -1.38435,-9.78755 -2.12902,-13.82788 -0.74468,-4.04033 -1.52879,-8.49834 -1.74248,-9.90667 -0.42134,-2.77684 -1.27849,-3.59884 -1.74208,-1.67064 -0.15952,0.66352 -0.50539,5.18667 -0.76856,10.05143 -0.51794,9.57393 -0.66209,10.45794 -1.64892,10.11161 -1.19412,-0.41909 -1.72496,-2.90822 -2.08333,-9.76885 -0.19538,-3.74038 -0.51111,-6.94325 -0.70163,-7.11748 -0.65795,-0.60175 -1.22552,0.96288 -1.23273,3.39828 -0.004,1.34407 -0.74545,6.01098 -1.64771,10.37091 -2.10652,10.17919 -2.40165,13.22244 -1.6717,17.23785 1.0563,5.81065 4.82957,15.104169 6.13246,15.104169 0.24435,0 0.55471,-0.63198 0.6897,-1.4044 z M 53.793,103.51738 c 0,-0.35038 -0.52623,-1.58679 -1.16938,-2.74758 -0.64316,-1.160789 -1.30818,-2.904409 -1.47784,-3.874719 -0.16965,-0.97031 -0.46875,-1.7642 -0.66466,-1.7642 -0.74055,0 -0.99858,-7.33411 -0.43812,-12.45258 0.54264,-4.95578 0.51519,-5.47996 -0.49586,-9.46848 -1.02026,-4.02487 -2.89507,-8.19202 -3.98146,-8.84958 -1.1377,-0.68864 -1.17635,0.50971 -0.0889,2.7585 1.80963,3.74235 2.18807,6.76868 2.15526,17.23537 -0.0291,9.27389 0.0253,9.88967 1.11519,12.6359 1.96553,4.952409 5.04581,8.937119 5.04581,6.527369 z m 110.63468,-0.13657 c 3.82142,-2.74916 5.25949,-9.973819 4.22076,-21.204509 -0.31828,-3.44119 -0.80572,-6.5069 -1.0832,-6.81268 -0.89369,-0.98484 -0.19145,-8.3179 1.06126,-11.08211 0.8388,-1.85089 0.97125,-2.55417 0.55305,-2.93665 -0.76557,-0.70017 -2.83218,3.51513 -3.45364,7.0444 -0.51729,2.93769 -0.38615,4.57391 1.06966,13.34586 1.68399,10.14685 0.62226,16.30628 -3.43355,19.919309 -1.24678,1.11066 -2.13608,2.139 -1.97623,2.28519 0.55573,0.50825 1.90254,0.26084 3.04189,-0.55881 z M 94.39288,84.435211 c 0.89105,-0.41555 2.03404,-1.27221 2.53998,-1.9037 1.93591,-2.41631 4.91608,-18.80335 4.46708,-24.56305 -0.23806,-3.05385 -1.5339,-5.83269 -4.45256,-9.54821 -2.29516,-2.92179 -2.76392,-3.09186 -7.12475,-2.58485 -3.83169,0.44549 -4.46052,0.62198 -15.94914,4.47623 -12.18098,4.08653 -13.17859,4.70598 -14.41906,8.95319 -0.70774,2.42325 -0.19102,11.7897 0.74138,13.43875 1.67609,2.96432 6.17759,5.29485 13.09244,6.77826 2.45133,0.52587 5.43809,1.55243 7.32348,2.51712 6.37377,3.26122 10.46232,3.984 13.78115,2.43626 z m 41.84825,-2.50343 c 1.03946,-0.3945 3.90979,-1.74524 6.37851,-3.00165 2.46872,-1.2564 5.9769,-2.69463 7.79596,-3.19607 3.69376,-1.01821 7.35982,-3.26094 8.75138,-5.35371 0.50631,-0.76144 1.27006,-2.82114 1.69721,-4.5771 1.52743,-6.27903 -0.12866,-11.43408 -5.02678,-15.64729 -4.29841,-3.69736 -6.67775,-4.70048 -12.39091,-5.22398 -6.9575,-0.63751 -10.99216,-0.19017 -15.05625,1.66933 -4.02881,1.84336 -5.88286,3.49125 -7.71957,6.86125 -1.21934,2.23724 -1.3953,3.02613 -1.39059,6.23438 0.005,3.46304 0.17508,4.07754 2.97345,10.74855 5.53838,13.20295 5.22985,12.78843 9.26277,12.44498 1.55919,-0.13278 3.68536,-0.5642 4.72482,-0.95869 z"
       style="fill:#ffffff;fill-opacity:0.01960784"
       id="path1456-6-7"
       inkscape:connector-curvature="0"
       sodipodi:nodetypes="sssssscscssscssssssssssscssssssscscscssssssssssssscsssssscsssscsscssssssssscccsssssssssssssssssscsssssssssssssssscssssssssscssscsccsssssscsssccsssscccsssssssscssssssssssssssscssssssssssssssssssscssssssscssssssssssssssssssssssssssssssssssssssssssssssssss" />
    <path
       d="m 310.56566,362.01619 c -4.30814,-2.09327 -6.76525,-6.29218 -6.12041,-10.45909 0.71215,-4.60193 3.14683,-7.54295 8.01034,-9.67635 2.31852,-1.01702 3.45885,-1.24356 6.26039,-1.24386 1.88402,-1.8e-4 3.4255,-0.15571 3.4255,-0.34563 0,-0.18992 -0.74416,-0.59143 -1.65369,-0.89221 -0.90953,-0.30083 -1.64101,-0.7774 -1.62551,-1.05911 0.0155,-0.2817 2.83838,-4.30405 6.27308,-8.93852 l 6.24489,-8.42639 10.97253,-0.11598 c 6.03488,-0.0638 10.97252,-0.0293 10.97252,0.0768 0,0.10601 -1.54147,2.33198 -3.4255,4.94665 -6.36039,8.82691 -11.45681,16.18704 -11.61014,16.76707 -0.0942,0.3565 0.11501,0.48289 0.54796,0.33092 1.3707,-0.48104 3.4997,1.01077 4.35061,3.04847 1.47894,3.54176 0.0613,7.88195 -3.40635,10.42865 -3.07075,2.25521 -5.80697,3.30493 -9.1946,3.52731 -4.03452,0.26489 -5.13843,-0.53837 -5.13843,-3.73904 0,-1.31815 -0.25773,-2.30334 -0.68803,-2.62992 -0.9935,-0.75412 -1.67438,-0.17421 -1.67438,1.42607 0,2.3426 -2.00666,4.4188 -5.93562,6.14122 -3.30811,1.45027 -4.90029,1.65163 -6.58516,0.83299 z m 83.62935,-0.59029 c -1.03947,-0.4388 -2.4007,-1.30497 -3.02496,-1.92493 l -1.13503,-1.12716 1.25315,-1.65381 c 1.18566,-1.56477 1.59256,-2.68771 0.97389,-2.68771 -0.15359,0 -1.15705,0.6872 -2.22992,1.52707 -4.46753,3.49741 -10.63937,5.10947 -15.05446,3.93217 -3.83114,-1.02159 -6.7018,-2.88423 -7.88231,-5.11454 -2.01966,-3.81565 -0.95366,-7.28694 3.57971,-11.6567 2.6398,-2.54454 2.68352,-2.62438 1.31327,-2.39834 -0.7796,0.12861 -1.84269,0.34508 -2.36242,0.48107 -0.81325,0.21278 -1.83403,-1.114 -7.32347,-9.51876 -3.50818,-5.37134 -6.44938,-9.93687 -6.536,-10.14567 -0.088,-0.21203 5.26498,-0.37961 12.12579,-0.37961 l 12.28328,0 4.43353,5.50953 c 2.43844,3.03025 5.4441,6.82212 6.67925,8.42639 1.23514,1.60423 2.50075,2.91696 2.81245,2.91713 1.46334,0 6.75918,2.79122 9.03716,4.7616 3.47262,3.00372 4.70709,5.65872 4.71754,10.14625 0.009,3.77457 -0.43938,4.89715 -2.66039,6.66387 -3.81186,3.03218 -7.3971,3.76297 -11.00006,2.24215 z m -131.71732,-1.95887 c -6.55677,-2.46596 -12.08989,-8.16576 -13.87518,-14.2932 -0.89012,-3.05505 -0.80397,-4.09215 0.57718,-6.94841 1.70813,-3.53242 3.51594,-5.45103 7.30992,-7.75779 3.07633,-1.87045 3.88163,-2.83817 2.84802,-3.42239 -0.23992,-0.13561 -1.22919,0.18131 -2.19838,0.70434 l -1.76217,0.95086 -1.53077,-1.66755 c -1.84402,-2.00884 -2.57716,-4.06489 -2.57716,-7.22763 0,-6.65865 4.24657,-11.30713 12.74427,-13.95051 4.90623,-1.52617 7.34287,-1.73085 10.84269,-0.91083 4.69417,1.09987 7.33302,3.09852 9.36093,7.09 1.00812,1.98421 1.14317,2.78112 1.00005,5.90107 l -0.16546,3.60704 6.14226,-0.17075 c 20.39844,-0.5671 27.697,-0.55242 27.55008,0.0555 -0.1642,0.67939 -13.32392,18.78654 -14.79306,20.35455 -0.932,0.99473 -1.08087,1.00906 -10.85746,1.04591 l -9.91249,0.0373 -2.07695,-2.01044 c -2.4565,-2.37784 -3.62774,-2.09636 -1.75864,0.42263 1.50219,2.0245 2.15661,4.12937 2.16,6.94741 0.002,1.74086 -0.34057,2.70881 -1.68277,4.75331 -2.17459,3.31246 -3.67177,4.74067 -6.58303,6.27969 -3.08225,1.62945 -6.79484,1.70186 -10.76188,0.20992 z m 176.46939,-3.74059 c -4.53219,-0.71676 -8.70789,-3.31506 -10.64307,-6.62263 -0.86339,-1.47564 -1.04387,-2.52263 -1.08711,-6.30664 -0.0285,-2.49552 -0.24115,-4.61683 -0.47251,-4.71406 -0.40233,-0.16909 -1.75795,1.93402 -2.2726,3.52572 -0.21921,0.67799 -1.00083,0.75622 -7.55659,0.75622 l -7.31207,0 -8.32061,-10.91107 -8.32061,-10.91107 11.48364,-0.26464 c 6.316,-0.14558 13.76522,-0.29142 16.55383,-0.3241 4.85833,-0.057 5.07872,-0.10007 5.27501,-1.0317 1.07503,-5.10257 1.52145,-6.49162 2.79548,-8.69831 1.89801,-3.28743 5.09072,-6.18019 8.35614,-7.57103 2.26469,-0.96462 3.23917,-1.10839 7.56082,-1.11545 4.59057,-0.007 5.19477,0.0932 8.09049,1.34799 4.03028,1.74646 6.68523,3.96497 8.25366,6.89688 1.14078,2.13245 1.23275,2.67995 1.02792,6.11905 -0.27694,4.64939 -1.44922,7.5934 -4.90261,12.31205 -1.40102,1.91435 -2.54732,3.64534 -2.54732,3.84663 0,0.69842 0.77529,0.35916 2.12617,-0.9304 0.74688,-0.71297 1.61241,-1.29634 1.92333,-1.29634 0.82637,0 3.96688,3.3168 4.73733,5.0032 0.38965,0.85297 0.66282,2.94177 0.66282,5.06873 0,3.16239 -0.18008,3.94742 -1.43009,6.23526 -1.63725,2.99656 -4.54851,5.64434 -7.85883,7.14749 -4.70759,2.13767 -11.51422,3.16701 -16.12262,2.43822 z m -95.72433,-38.39841 c -1.35506,-0.63183 -2.08523,-0.73822 -2.96556,-0.43212 -2.58629,0.89931 -10.93014,0.17032 -13.58125,-1.18659 -0.69749,-0.35697 -1.45567,-0.22656 -3.38903,0.58294 -1.75071,0.73303 -2.88727,0.95571 -3.82604,0.74957 -1.82855,-0.4015 -3.96704,-1.39954 -5.19284,-2.42351 -1.01979,-0.85187 -1.02611,-0.85162 -2.4317,0.0988 -1.2795,0.86515 -1.57689,0.9033 -3.22989,0.41425 -2.69178,-0.7964 -5.61753,-2.45635 -7.15839,-4.06137 -1.05611,-1.1001 -1.49169,-2.15908 -1.94488,-4.7284 -0.5234,-2.96735 -0.72527,-3.37766 -1.94581,-3.9549 -9.70402,-4.58948 -28.33455,-20.73747 -36.02486,-31.22452 -5.70496,-7.77967 -10.61156,-17.78232 -14.99142,-30.56171 -0.81455,-2.37666 -1.69412,-4.90457 -1.95459,-5.61757 -1.41786,-3.88119 -3.30751,-16.59129 -3.91892,-26.3594 -0.35702,-5.704 -0.55022,-10.46346 -0.42931,-10.57658 0.1209,-0.11312 6.38996,-0.28113 13.93125,-0.37336 l 13.71141,-0.16769 -0.32055,4.91063 c -0.35347,5.41466 0.21524,11.44815 1.72556,18.3064 1.00033,4.54245 5.73758,18.20403 6.75259,19.47357 0.50112,0.62679 0.72081,-0.0188 1.4163,-4.16203 1.04014,-6.19653 2.54921,-10.56663 5.73133,-16.59736 5.22004,-9.89298 12.48496,-17.16145 23.12717,-23.13849 13.16401,-7.39336 31.59246,-10.38527 45.35829,-7.36405 12.62684,2.77124 22.52824,8.23529 34.04716,18.78877 8.99635,8.24234 14.33615,16.13659 18.0081,26.62281 0.99424,2.83933 2.01223,5.10268 2.2622,5.02968 0.24997,-0.073 0.69956,-1.28573 0.99909,-2.69494 0.29952,-1.40921 0.88979,-3.7123 1.3117,-5.11797 2.47785,-8.25545 3.07596,-22.18968 1.28834,-30.01439 -0.56321,-2.46525 -0.91066,-4.58595 -0.77211,-4.71266 0.13855,-0.12672 12.37336,-0.32446 27.18849,-0.43943 l 26.93658,-0.20904 0,4.05746 c -0.003,20.09116 -7.48575,44.80475 -18.87023,62.31485 -8.9065,13.6988 -18.19846,24.16075 -28.32828,31.89515 -7.46175,5.69727 -12.09707,8.1811 -25.65366,13.74648 -5.06124,2.07778 -5.55125,2.38177 -5.85098,3.62988 -0.60071,2.50137 -1.72718,4.12457 -3.18491,4.58932 -2.30346,0.73441 -6.3034,0.54268 -8.32135,-0.39887 l -1.81799,-0.84823 -1.28463,1.00954 c -2.16704,1.70304 -7.19131,1.86911 -10.49184,0.34681 -1.38647,-0.63948 -1.58241,-0.63994 -2.36241,-0.006 -2.19779,1.78764 -10.39851,2.27403 -13.55176,0.80373 z m 10.88438,-3.64695 c 1.1509,-0.9054 1.32946,-1.39156 1.49497,-4.0704 0.25706,-4.16072 -1.24723,-8.43115 -3.39108,-9.62673 -1.84969,-1.03154 -4.28855,-1.05959 -6.44544,-0.0742 l -1.65368,0.75554 -0.23624,6.57332 -0.23625,6.57331 1.65369,0.40399 c 0.90953,0.2222 2.97069,0.42409 4.58036,0.44866 2.44303,0.0373 3.14265,-0.12524 4.23367,-0.98354 z m 11.85113,0.13875 c 1.05418,-0.3361 1.51122,-0.80858 1.72419,-1.7825 0.4069,-1.86071 0.34826,-8.24224 -0.0814,-8.86027 -0.93582,-1.34602 -6.57701,-1.97777 -7.59945,-0.85105 -0.29469,0.32476 -0.579,2.58998 -0.64551,5.14306 -0.10231,3.92734 0.003,4.68557 0.75438,5.44518 1.26709,1.28053 3.55873,1.6354 5.84781,0.90558 z m -43.48559,-0.62433 c 2.16678,-1.38802 3.08996,-7.92921 1.36558,-9.67577 -1.37947,-1.39724 -4.14686,-1.93274 -6.1104,-1.1824 -2.00372,0.76569 -2.14557,0.9783 -2.68868,4.03031 -0.66737,3.75018 0.0375,5.60398 2.52339,6.63616 2.40601,0.99902 3.57839,1.0448 4.91011,0.1917 z m 17.0972,-1.46101 c 0.51321,-1.48375 0.56443,-2.98106 0.23624,-6.90624 -0.41185,-4.92591 -0.44108,-5.01884 -1.70563,-5.42289 -1.01814,-0.32532 -1.79743,-0.19226 -3.73492,0.63769 -3.94573,1.69021 -4.92659,2.78682 -5.59274,6.25266 -0.31841,1.65663 -0.50556,3.78167 -0.41588,4.72229 0.15478,1.62358 0.2708,1.73685 2.28922,2.2351 1.16939,0.28866 3.50818,0.49133 5.1973,0.45035 l 3.07113,-0.0745 z m 40.10494,1.31735 c 2.07111,-1.2023 1.90916,-9.80583 -0.2071,-11.00202 -0.22715,-0.12839 -1.78793,0.18816 -3.4684,0.70345 -3.54965,1.08848 -4.25418,1.97195 -4.19314,5.25813 0.0563,3.03087 0.51548,4.23101 1.85627,4.85155 1.30225,0.60269 5.09428,0.72183 6.01237,0.18889 z m -68.82887,-2.55574 c 0.76948,-2.11412 0.83185,-6.82565 0.0992,-7.49581 -0.31099,-0.28449 -2.1497,-0.61023 -4.08599,-0.72389 -3.26126,-0.19141 -3.56152,-0.13662 -4.0768,0.74397 -0.56329,0.96258 -0.36574,3.31612 0.49175,5.85873 0.45242,1.34155 1.65485,2.25335 3.73302,2.83082 2.54695,0.7077 3.21646,0.49602 3.83879,-1.21382 z m 31.81488,-22.25425 c 0.13498,-0.77241 0.19777,-2.18221 0.13952,-3.13288 -0.10109,-1.65011 -0.0423,-1.72848 1.29661,-1.72848 1.27578,0 1.4389,0.16828 1.8052,1.86235 0.75855,3.50804 1.50357,2.11064 4.9095,-9.20841 l 1.17024,-3.8891 -0.77507,-6.48181 c -0.42629,-3.565 -1.38435,-9.78755 -2.12902,-13.82788 -0.74468,-4.04033 -1.52879,-8.49834 -1.74248,-9.90667 -0.42134,-2.77684 -1.27849,-3.59884 -1.74208,-1.67064 -0.15952,0.66352 -0.50539,5.18667 -0.76856,10.05143 -0.51794,9.57393 -0.66209,10.45794 -1.64892,10.11161 -1.19412,-0.41909 -1.72496,-2.90822 -2.08333,-9.76885 -0.19538,-3.74038 -0.51111,-6.94325 -0.70163,-7.11748 -0.65795,-0.60175 -1.22552,0.96288 -1.23273,3.39828 -0.004,1.34407 -0.74545,6.01098 -1.64771,10.37091 -2.10652,10.17919 -2.40165,13.22244 -1.6717,17.23785 1.0563,5.81065 4.82957,15.10417 6.13246,15.10417 0.24435,0 0.55471,-0.63198 0.6897,-1.4044 z m -55.48302,-1.87638 c 0,-0.35038 -0.52623,-1.58679 -1.16938,-2.74758 -0.64316,-1.16079 -1.30818,-2.90441 -1.47784,-3.87472 -0.16965,-0.97031 -0.46875,-1.7642 -0.66466,-1.7642 -0.74055,0 -0.99858,-7.33411 -0.43812,-12.45258 0.54264,-4.95578 0.51519,-5.47996 -0.49586,-9.46848 -1.02026,-4.02487 -2.89507,-8.19202 -3.98146,-8.84958 -1.1377,-0.68864 -1.17635,0.50971 -0.0889,2.7585 1.80963,3.74235 2.18807,6.76868 2.15526,17.23537 -0.0291,9.27389 0.0253,9.88967 1.11519,12.6359 1.96553,4.95241 5.04581,8.93712 5.04581,6.52737 z m 110.63468,-0.13657 c 3.82142,-2.74916 5.25949,-9.97382 4.22076,-21.20451 -0.31828,-3.44119 -0.80572,-6.5069 -1.0832,-6.81268 -0.89369,-0.98484 -0.19145,-8.3179 1.06126,-11.08211 0.8388,-1.85089 0.97125,-2.55417 0.55305,-2.93665 -0.76557,-0.70017 -2.83218,3.51513 -3.45364,7.0444 -0.51729,2.93769 -0.38615,4.57391 1.06966,13.34586 1.68399,10.14685 0.62226,16.30628 -3.43355,19.91931 -1.24678,1.11066 -2.13608,2.139 -1.97623,2.28519 0.55573,0.50825 1.90254,0.26084 3.04189,-0.55881 z m -70.0348,-18.9456 c 0.89105,-0.41555 2.03404,-1.27221 2.53998,-1.9037 1.93591,-2.41631 4.91608,-18.80335 4.46708,-24.56305 -0.23806,-3.05385 -1.5339,-5.83269 -4.45256,-9.54821 -2.29516,-2.92179 -2.76392,-3.09186 -7.12475,-2.58485 -3.83169,0.44549 -4.46052,0.62198 -15.94914,4.47623 -12.18098,4.08653 -13.17859,4.70598 -14.41906,8.95319 -0.70774,2.42325 -0.19102,11.7897 0.74138,13.43875 1.67609,2.96432 6.17759,5.29485 13.09244,6.77826 2.45133,0.52587 5.43809,1.55243 7.32348,2.51712 6.37377,3.26122 10.46232,3.984 13.78115,2.43626 z m 41.84825,-2.50343 c 1.03946,-0.3945 3.90979,-1.74524 6.37851,-3.00165 2.46872,-1.2564 5.9769,-2.69463 7.79596,-3.19607 3.69376,-1.01821 7.35982,-3.26094 8.75138,-5.35371 0.50631,-0.76144 1.27006,-2.82114 1.69721,-4.5771 1.52743,-6.27903 -0.12866,-11.43408 -5.02678,-15.64729 -4.29841,-3.69736 -6.67775,-4.70048 -12.39091,-5.22398 -6.9575,-0.63751 -10.99216,-0.19017 -15.05625,1.66933 -4.02881,1.84336 -5.88286,3.49125 -7.71957,6.86125 -1.21934,2.23724 -1.3953,3.02613 -1.39059,6.23438 0.005,3.46304 0.17508,4.07754 2.97345,10.74855 5.53838,13.20295 5.22985,12.78843 9.26277,12.44498 1.55919,-0.13278 3.68536,-0.5642 4.72482,-0.95869 z"
       style="fill:#ffffff;fill-opacity:0.01960784"
       id="path1456-6-7-6"
       inkscape:connector-curvature="0"
       sodipodi:nodetypes="sssssscscssscssssssssssscssssssscscscssssssssssssscsssssscsssscsscssssssssscccsssssssssssssssssscsssssssssssssssscssssssssscssscsccsssssscsssccsssscccsssssssscssssssssssssssscssssssssssssssssssscssssssscssssssssssssssssssssssssssssssssssssssssssssssssss" />
    <path
       style="fill:#ffffff;fill-opacity:0.01960784"
       d="m 194.96745,361.45713 c -4.93841,-3.33102 -7.53404,-8.71655 -8.0161,-16.63224 -0.35924,-5.89879 0.23045,-10.34402 2.7676,-20.86298 2.26591,-9.39436 2.56881,-11.27445 2.71319,-16.84027 l 0.1255,-4.83869 -0.70124,-1.28843 c -0.3857,-0.70863 -0.76847,-1.28104 -0.85059,-1.27202 -0.25454,0.028 -3.34388,3.69304 -5.22086,6.19385 -4.09291,5.45317 -6.41581,10.83211 -6.8388,15.83595 l -0.16367,1.93615 -1.3207,0.27419 c -2.66059,0.55232 -2.72419,0.53415 -3.09934,-0.88505 -0.50135,-1.89663 -0.26458,-6.63396 0.43567,-8.71694 0.94968,-2.82501 3.08118,-6.78196 6.12792,-11.37592 3.38225,-5.09987 5.58729,-9.12739 6.39919,-11.68822 0.66455,-2.09599 0.74446,-2.14454 3.89741,-2.36835 l 2.18826,-0.15533 0.78235,1.99249 c 1.86325,4.74531 2.54907,8.08234 2.77221,13.48873 0.25489,6.17651 -0.39663,11.69038 -2.97059,25.14016 -2.23093,11.65727 -2.20359,11.39078 -1.54047,15.01623 1.14523,6.26132 2.71996,9.8883 5.67455,13.06992 0.71201,0.76674 0.73404,0.86179 0.55634,2.40031 -0.1018,0.88109 -0.28188,1.85779 -0.40021,2.17047 -0.33854,0.89454 -1.38984,0.70629 -3.31762,-0.59401 z m -22.6498,-25.0485 -1.10495,-0.0982 0.13583,-1.01268 c 0.2084,-1.55378 1.20677,-2.84541 2.803,-3.62639 1.23815,-0.60575 1.81358,-0.70193 5.382,-0.89958 2.19761,-0.12172 4.42202,-0.22564 4.94315,-0.23093 l 0.94748,-0.01 0,2.3955 c 0,2.83147 0.72491,2.43896 -5.82752,3.1555 -4.60764,0.50389 -5.0566,0.52401 -7.27899,0.32644 z m 22.80881,-3.2353 c -0.20895,-0.8326 0.059,-2.48805 0.55929,-3.45555 0.59896,-1.15825 2.29198,-2.89014 4.39298,-4.49384 2.16532,-1.65282 4.04433,-3.5811 4.67164,-4.79416 1.35069,-2.61198 2.26564,-11.25102 1.66713,-15.74133 -0.81523,-6.11647 -3.98059,-12.92574 -8.10787,-17.44166 -0.6946,-0.75998 -1.26289,-1.49394 -1.26289,-1.63102 0,-0.13708 1.21262,-1.37183 2.69473,-2.74389 1.89976,-1.75873 2.73023,-2.38284 2.81518,-2.11565 0.3344,1.05181 4.55096,8.91781 5.49813,10.25675 2.04935,2.897 4.76935,4.96181 7.44074,5.64839 0.62303,0.16012 1.56143,0.4559 2.08536,0.65727 1.37914,0.53008 3.27276,0.45215 6.452,-0.26552 4.75625,-1.07366 6.27036,-0.76855 7.36042,1.48322 0.90393,1.86724 0.72277,2.19675 -1.64447,2.99092 -4.15104,1.39262 -9.6207,1.45276 -15.10259,0.16604 -1.68874,-0.39638 -2.30602,-0.45329 -2.52665,-0.23296 -0.33142,0.331 -0.34934,2.50866 -0.05,6.07835 0.16793,2.00254 0.11032,2.87463 -0.34756,5.26239 -1.39181,7.25808 -4.11145,12.56996 -8.57271,16.74396 -1.75973,1.64643 -2.39951,2.08075 -3.55571,2.4138 -0.77544,0.22339 -2.06138,0.73306 -2.85764,1.13264 l -1.44773,0.7265 -0.16181,-0.64465 z m -14.30987,-44.5834 c -0.38021,-0.11448 -1.09084,-0.45508 -1.57917,-0.75689 -0.72855,-0.45026 -0.88788,-0.70012 -0.88788,-1.39234 l 0,-0.84361 1.7055,-0.16697 c 4.26045,-0.41709 7.70062,-1.824 11.08898,-4.53504 3.61475,-2.89216 6.74565,-7.06086 11.84036,-15.76518 1.63966,-2.80137 2.67397,-4.31983 2.94635,-4.32548 0.51073,-0.0106 1.67086,1.31824 1.88067,2.15413 0.33808,1.34702 -1.60338,7.83398 -3.45638,11.54882 -3.5792,7.1754 -9.58742,12.05848 -17.03586,13.84562 -2.07238,0.49723 -5.25319,0.61313 -6.50257,0.23694 z m -125.89381,-3.53628 -40.9317,-0.12845 -0.82285,-0.5869 c -1.03498,-0.73821 -2.61543,-3.9485 -3.31833,-6.74038 -1.2132,-4.81875 -1.91598,-10.0935 -2.30598,-17.30754 -0.1465,-2.70983 -0.50289,-8.56533 -0.79199,-13.01224 -0.57392,-8.82798 -0.53264,-14.35324 0.16896,-22.6135 1.05876,-12.46526 2.98333,-19.94158 5.56962,-21.63618 0.7114,-0.46613 8.17033,-0.91997 32.37884,-1.9701 22.77231,-0.98783 47.3753,-0.17567 61.20545,2.02044 3.11898,0.49526 3.69215,0.93369 5.18966,3.96967 1.51364,3.0687 2.38113,6.55669 2.60684,10.48161 0.24558,4.27039 0.14513,5.28079 -0.54337,5.46549 -0.88029,0.23616 -3.6969,0.17424 -4.19477,-0.0922 -0.71967,-0.38516 -1.23604,-2.02109 -1.65535,-5.2444 -0.88958,-6.83832 -2.09807,-8.44605 -7.26665,-9.6673 -5.77319,-1.36411 -14.55286,-1.87341 -32.02347,-1.85765 -16.97857,0.0153 -30.09227,0.53779 -43.25021,1.72318 -3.2516,0.29293 -4.18088,0.46834 -5.18977,0.97958 -2.61435,1.32479 -4.56726,4.41972 -5.76383,9.13441 -0.91686,3.61255 -1.1022,5.98421 -1.37386,17.5805 -0.39057,16.67227 0.24404,24.7456 2.62391,33.381 1.43818,5.21847 2.63334,6.98994 5.73741,8.50403 3.45165,1.68364 2.09991,1.62366 36.35176,1.61317 29.68715,-0.009 39.49024,-0.19503 43.343,-0.82208 3.58535,-0.58353 5.64026,-4.30191 6.82003,-12.34088 0.55033,-3.74999 0.61627,-3.97656 1.34744,-4.62986 1.48288,-1.32495 3.42632,-1.1655 4.25319,0.34896 0.74301,1.36088 0.58763,5.76111 -0.36397,10.30695 -1.22689,5.86093 -2.35125,9.82843 -3.00573,10.60624 -1.27731,1.51799 -5.04326,2.42486 -10.70426,2.57764 -1.73708,0.0469 -21.57758,0.0274 -44.09002,-0.0432 z m 115.21517,-4.14726 c -1.64626,-0.40684 -2.63614,-0.94055 -3.82632,-2.06304 l -0.96985,-0.91469 0.59137,-0.47887 c 0.91555,-0.74135 2.89322,-1.2379 6.47878,-1.62666 1.80654,-0.19588 3.79629,-0.52229 4.42162,-0.72536 6.8724,-2.23169 11.15777,-4.97837 16.71276,-10.71191 2.71846,-2.80582 8.31392,-9.74584 8.72826,-10.82556 0.084,-0.2189 0.53872,-0.34453 1.24697,-0.34453 1.30346,0 1.30128,-0.15024 0.0527,3.6554 -2.81928,8.59299 -8.63665,15.70476 -16.94796,20.71903 -1.86891,1.12752 -2.22286,1.23576 -7.9323,2.42577 -6.42438,1.33903 -6.64701,1.3622 -8.55604,0.89042 z M 48.06409,275.58126 c 0.24345,-0.63445 9.5144,-13.50394 11.57682,-16.07041 4.24611,-5.28385 10.44968,-11.78901 12.79597,-13.41804 1.74607,-1.2123 4.83292,-2.20886 7.8491,-2.53399 3.59206,-0.38722 33.12419,-0.37316 55.99488,0.0266 19.40288,0.33919 18.871,0.29456 24.40681,2.04808 1.7144,0.54306 3.16511,0.93937 3.22377,0.8807 0.0587,-0.0587 -0.20334,-0.51315 -0.58227,-1.00995 -0.89144,-1.16872 -2.87185,-2.46882 -4.94271,-3.2448 -3.45887,-1.29607 -4.63132,-1.37629 -24.37959,-1.66816 -17.80776,-0.26319 -25.81822,-0.45216 -47.12199,-1.1116 l -9.98026,-0.30893 -1.48153,-0.73886 c -2.6096,-1.30142 -4.69532,-3.5962 -14.98564,-16.48771 -5.46497,-6.8464 -9.9363,-12.50904 -9.9363,-12.58365 0,-0.25438 5.68363,0.20926 6.04432,0.49306 0.19765,0.15552 2.85242,3.61803 5.8995,7.69447 6.56237,8.77928 8.52189,11.15599 11.5405,13.99759 2.98933,2.81403 4.03832,3.50675 5.90533,3.89967 3.59773,0.75716 13.37989,0.93409 35.25068,0.63758 25.35549,-0.34375 33.85429,-0.16097 37.81526,0.81329 3.16294,0.77797 7.04688,2.12668 9.47417,3.28993 1.02446,0.49096 1.90691,0.8484 1.96099,0.79431 0.23579,-0.23577 -0.75359,-1.64515 -1.9222,-2.73826 -3.66552,-3.42866 -9.12457,-5.56465 -15.95592,-6.24316 -2.73689,-0.27183 -18.44075,-0.39723 -28.67746,-0.22899 -3.1962,0.0525 -9.56336,0.0929 -14.14923,0.0897 -7.49014,-0.005 -8.65444,-0.0628 -11.45074,-0.56612 -3.70381,-0.66663 -7.84508,-1.99588 -10.28186,-3.30024 -1.46117,-0.78213 -1.86139,-1.13931 -2.32351,-2.07364 -1.32937,-2.68778 -1.46907,-10.0058 -0.30249,-15.84648 l 0.26494,-1.32649 2.0034,0 c 1.10188,0 2.02146,0.0284 2.04353,0.0632 0.0221,0.0348 0.112,2.8488 0.19986,6.25346 0.17485,6.7762 0.25903,7.19719 1.78724,8.93772 1.11417,1.26896 1.81551,1.58904 4.17748,1.90649 5.00267,0.67236 8.83463,0.78257 27.05923,0.77823 11.24692,-0.003 20.53723,0.10499 22.36084,0.25913 8.5533,0.723 15.39799,2.43151 21.35706,5.33096 2.88944,1.40589 3.21139,1.63966 5.27206,3.82815 3.87696,4.1174 7.6311,9.61999 9.77831,14.33239 l 0.97858,2.14766 -0.0915,-1.5396 c -0.20404,-3.43364 -5.26053,-11.80433 -13.17527,-21.81078 -1.47469,-1.86442 -2.68123,-3.47818 -2.68123,-3.58615 0,-0.36344 1.11758,-0.98294 1.77323,-0.98294 1.15412,0 4.13042,2.00906 5.48304,3.70116 6.9016,8.63377 11.21316,15.66556 13.22288,21.56533 0.44971,1.32017 1.08569,2.68217 1.41327,3.02667 l 0.59563,0.62636 0.76429,-0.7643 0.76431,-0.7643 -0.65365,-2.26238 c -1.45973,-5.05227 -3.05203,-8.17635 -9.19017,-18.03121 -4.68342,-7.5193 -4.71267,-7.60266 -2.66683,-7.60266 0.8856,0 1.4253,0.23162 2.93788,1.26088 1.01915,0.69348 2.03339,1.4041 2.25389,1.57915 0.64588,0.5128 5.70651,9.09393 7.46205,12.65314 0.88715,1.79866 2.02078,4.59135 2.51912,6.20597 1.321,4.27988 1.32538,4.28467 2.76321,3.02223 0.92009,-0.80783 0.9356,-0.8516 0.78857,-2.22395 -0.3429,-3.20094 -2.18236,-8.94574 -4.3636,-13.62789 -0.60829,-1.30573 -1.10598,-2.5262 -1.10598,-2.71216 0,-0.18596 0.32924,-0.70656 0.7316,-1.15691 0.70437,-0.7883 0.75847,-0.80492 1.45282,-0.44615 1.17472,0.60696 3.18938,2.80933 4.04819,4.42535 0.44019,0.82826 1.45149,3.69464 2.24733,6.36973 0.79586,2.67509 1.53786,4.8638 1.64891,4.8638 0.11104,0 0.57783,-0.47197 1.03731,-1.04883 2.12034,-2.66196 2.88922,-3.03254 3.94969,-1.9037 0.68582,0.73001 0.69755,1.68476 0.044,3.58419 -0.67524,1.96266 -0.64903,2.5064 0.13821,2.86509 0.35395,0.16127 0.80877,0.29322 1.01068,0.29322 0.49644,0 0.46171,0.65659 -0.12495,2.36169 -1.73539,5.044 -5.47746,9.49426 -11.38319,13.53748 -5.6101,3.84079 -12.88888,6.2415 -19.79178,6.52778 -3.42412,0.14201 -5.41631,-0.25544 -7.11704,-1.41987 -1.30674,-0.89469 -1.35358,-1.67965 -0.14866,-2.49165 1.31634,-0.88709 3.05619,-1.30148 6.68854,-1.59308 11.28046,-0.90555 19.81689,-5.00468 26.01342,-12.49147 0.97251,-1.175 0.99444,-1.2328 0.29313,-0.77264 -7.6948,5.04897 -16.07881,8.73516 -22.43087,9.86217 -1.90568,0.33811 -3.32067,0.40888 -6.19029,0.30958 -3.94154,-0.13639 -6.29457,-0.60977 -9.01818,-1.81428 -1.50613,-0.66608 -1.69826,-1.0112 -1.58785,-2.85219 l 0.0641,-1.06941 -20.71851,-0.12741 c -11.39519,-0.0701 -23.38569,-0.12702 -26.64556,-0.12655 -7.53901,0.001 -14.87078,0.486 -21.1081,1.39607 -2.94401,0.42955 -3.4594,0.81296 -4.44375,3.30576 -0.66319,1.67947 -0.79324,4.93257 -0.38457,9.61995 0.25446,2.91864 -0.0553,4.63726 -0.94871,5.263 -0.32544,0.22794 -1.13229,0.3682 -2.11805,0.3682 -1.89248,0 -1.89175,10e-4 -2.3118,-3.42395 -0.61522,-5.01651 -0.23559,-10.46954 0.98402,-14.13446 0.48905,-1.46958 0.69842,-1.75414 1.95011,-2.65046 2.6383,-1.88925 7.04586,-3.15151 13.20751,-3.78246 1.50988,-0.15461 7.81506,-0.26613 14.65455,-0.2592 6.60245,0.007 18.42846,-0.0621 26.28002,-0.15281 9.14081,-0.10565 16.81227,-0.063 21.32807,0.11865 3.87887,0.15601 7.10146,0.23467 7.16133,0.17482 0.25148,-0.25148 -2.70251,-1.67067 -4.46925,-2.14716 -3.47861,-0.93819 -5.07305,-1.03786 -20.35651,-1.27253 -8.33794,-0.12802 -21.86814,-0.36615 -30.06711,-0.52917 -22.6493,-0.45033 -24.71521,-0.44337 -26.65614,0.0898 -3.42934,0.94209 -6.4287,2.38542 -8.96961,4.31628 -2.56716,1.95081 -5.52719,5.27486 -12.56884,14.11452 l -7.59802,9.53809 -2.64001,0 c -2.22829,0 -2.6176,-0.0584 -2.49636,-0.37434 z"
       id="path2161-3-2-8"
       inkscape:connector-curvature="0" />
  </g>
</svg>
