<?xml version="1.0" encoding="UTF-8" standalone="no"?>
<!-- Created with Inkscape (http://www.inkscape.org/) -->
<svg xmlns:dc="http://purl.org/dc/elements/1.1/" xmlns:cc="http://creativecommons.org/ns#" xmlns:rdf="http://www.w3.org/1999/02/22-rdf-syntax-ns#" xmlns:svg="http://www.w3.org/2000/svg" xmlns="http://www.w3.org/2000/svg" xmlns:sodipodi="http://sodipodi.sourceforge.net/DTD/sodipodi-0.dtd" xmlns:inkscape="http://www.inkscape.org/namespaces/inkscape" id="svg2985" version="1.1" inkscape:version="0.48.4 r9939" width="500.00571" height="499.96057" xml:space="preserve" sodipodi:docname="Chaospott_schwarzer_Rand_plotter_version.svg"><metadata id="metadata2991"><rdf:RDF><cc:Work rdf:about=""><dc:format>image/svg+xml</dc:format><dc:type rdf:resource="http://purl.org/dc/dcmitype/StillImage"/><dc:title/></cc:Work></rdf:RDF></metadata><defs id="defs2989"/><sodipodi:namedview pagecolor="#ffffff" bordercolor="#666666" borderopacity="1" objecttolerance="10" gridtolerance="10" guidetolerance="10" inkscape:pageopacity="0" inkscape:pageshadow="2" inkscape:window-width="1270" inkscape:window-height="704" id="namedview2987" showgrid="false" inkscape:zoom="0.73263742" inkscape:cx="215.95331" inkscape:cy="270.42382" inkscape:window-x="129" inkscape:window-y="118" inkscape:window-maximized="0" inkscape:current-layer="g2993" fit-margin-top="0" fit-margin-left="0" fit-margin-right="0" fit-margin-bottom="0"/><g id="g2993" inkscape:groupmode="layer" inkscape:label="Chaospott_schwarzer_Rand_plotter_version" transform="matrix(1.25,0,0,-1.25,-156.09393,810.31516)"><g id="g3062" transform="matrix(1.1553521,0,0,1.1553521,-19.399447,-38.568593)"><path id="path2995" style="fill:#000000;fill-opacity:1;fill-rule:nonzero;stroke:#000000;stroke-width:0.56690001;stroke-linecap:butt;stroke-linejoin:miter;stroke-miterlimit:22.92558479;stroke-opacity:1;stroke-dasharray:none" d="m 175.7741,543.5804 c 31.2744,31.2744 74.4803,50.6166 122.2075,50.6166 47.7273,0 90.9335,-19.3425 122.2073,-50.6166 31.2741,-31.2738 50.6165,-74.48 50.6165,-122.2072 0,-47.7272 -19.3427,-90.9335 -50.6165,-122.2075 -31.2738,-31.2738 -74.4803,-50.6166 -122.2073,-50.6166 -47.7272,0 -90.9334,19.3428 -122.2075,50.6166 -31.2738,31.274 -50.6166,74.4803 -50.6166,122.2075 0,47.7272 19.3428,90.9334 50.6166,122.2072 z" inkscape:connector-curvature="0"/><path id="path2997" style="fill:#ffffff;fill-opacity:1;fill-rule:nonzero;stroke:none" d="m 204.6495,339.6112 0,-5.2069 c -2.5121,2.1248 -5.106,3.1878 -7.789,3.1878 -2.9571,0 -5.4499,-1.074 -7.473,-3.223 -2.039,-2.1398 -3.0589,-4.754 -3.0589,-7.8468 0,-3.0592 1.0199,-5.6373 3.0589,-7.7392 2.035,-2.0971 4.5309,-3.1479 7.488,-3.1479 1.5321,0 2.8281,0.2501 3.8991,0.7541 0.593,0.2539 1.2109,0.5898 1.8428,1.0187 0.6451,0.4261 1.3252,0.9423 2.0321,1.5472 l 0,-5.3011 c -2.4851,-1.421 -5.0941,-2.1319 -7.8279,-2.1319 -4.1142,0 -7.6212,1.453 -10.5281,4.3591 -2.8939,2.9299 -4.343,6.465 -4.343,10.6018 0,3.71 1.2101,7.0149 3.6321,9.921 2.9848,3.5589 6.84,5.3399 11.5749,5.3399 2.585,0 5.082,-0.7109 7.492,-2.1328" inkscape:connector-curvature="0"/><path id="path2999" style="fill:#ffffff;fill-opacity:1;fill-rule:nonzero;stroke:none" d="m 215.6885,329.7832 12.4101,0 0,11.395 4.3438,0 0,-29.1305 -4.3438,0 0,13.6023 -12.4101,0 0,-13.6023 -4.3441,0 0,29.1305 4.3441,0 0,-11.395 z" inkscape:connector-curvature="0"/><path id="path3001" style="fill:#ffffff;fill-opacity:1;fill-rule:nonzero;stroke:none" d="m 257.4774,319.1233 -12.3168,0 -3.2072,-7.0756 -4.6748,0 14.2338,30.9583 13.7342,-30.9583 -4.75,0 -3.0192,7.0756 z" inkscape:connector-curvature="0"/><path id="path3003" style="fill:#ffffff;fill-opacity:1;fill-rule:nonzero;stroke:none" d="m 268.5906,326.7442 c 0,4.102 1.4848,7.6249 4.4569,10.567 2.9529,2.941 6.5081,4.4138 10.656,4.4138 4.102,0 7.6179,-1.4847 10.5509,-4.4529 2.942,-2.969 4.4141,-6.5319 4.4141,-10.696 0,-4.187 -1.476,-7.742 -4.4331,-10.6599 -2.969,-2.9299 -6.5549,-4.394 -10.7538,-4.394 -3.7151,0 -7.0512,1.2999 -10.008,3.9058 -3.2542,2.8792 -4.883,6.6521 -4.883,11.3162" inkscape:connector-curvature="0"/><path id="path3005" style="fill:#ffffff;fill-opacity:1;fill-rule:nonzero;stroke:none" d="m 321.6376,336.8381 -3.5232,-2.1129 c -0.657,1.1559 -1.2858,1.9139 -1.883,2.2648 -0.6208,0.4031 -1.4219,0.6021 -2.403,0.6021 -1.207,0 -2.207,-0.3438 -2.9999,-1.0349 -0.7959,-0.68 -1.1951,-1.535 -1.1951,-2.5671 0,-1.4218 1.0472,-2.5659 3.1332,-3.433 l 2.8709,-1.188 c 2.336,-0.957 4.0431,-2.1248 5.1251,-3.511 1.078,-1.368 1.6208,-3.0549 1.6208,-5.055 0,-2.6799 -0.883,-4.8909 -2.6478,-6.641 -1.7782,-1.7581 -3.981,-2.6399 -6.6141,-2.6399 -2.4999,0 -4.5621,0.75 -6.1869,2.2459 -1.6061,1.4961 -2.6062,3.6011 -3.0002,6.3201 l 4.3982,0.9799 c 0.1959,-1.7098 0.5429,-2.8939 1.0429,-3.5458 0.8949,-1.258 2.2,-1.8871 3.9141,-1.8871 1.3518,0 2.4769,0.457 3.3709,1.3788 0.8949,0.9182 1.3439,2.0781 1.3439,3.488 0,0.5661 -0.0819,1.082 -0.242,1.5472 -0.152,0.4759 -0.3949,0.9099 -0.73,1.3008 -0.3208,0.4023 -0.7429,0.773 -1.2659,1.1132 -0.5241,0.352 -1.1449,0.6868 -1.8629,1 l -2.778,1.1679 c -3.937,1.6869 -5.906,4.1519 -5.906,7.3982 0,2.1877 0.8238,4.0158 2.4769,5.489 1.6521,1.4839 3.7109,2.2257 6.1679,2.2257 3.32,0 5.91,-1.6358 7.7732,-4.9059" inkscape:connector-curvature="0"/><path id="path3007" style="fill:#ffffff;fill-opacity:1;fill-rule:nonzero;stroke:none" d="m 333.2004,323.8773 0,-11.8282 -4.3438,0 0,29.1291 4.9218,0 c 2.41,0 4.2262,-0.172 5.457,-0.5079 1.2421,-0.3402 2.336,-0.9842 3.2811,-1.9262 1.652,-1.6358 2.48,-3.6989 2.48,-6.1869 0,-2.6679 -0.8821,-4.782 -2.6481,-6.3399 -1.766,-1.5591 -4.1448,-2.34 -7.1368,-2.34 l -2.0112,0 z" inkscape:connector-curvature="0"/><path id="path3009" style="fill:#ffffff;fill-opacity:1;fill-rule:nonzero;stroke:none" d="m 349.2706,326.7442 c 0,4.102 1.4839,7.6249 4.4529,10.567 2.9571,2.941 6.5121,4.4138 10.66,4.4138 4.102,0 7.617,-1.4847 10.5469,-4.4529 2.9452,-2.969 4.418,-6.5319 4.418,-10.696 0,-4.187 -1.4808,-7.742 -4.4339,-10.6599 -2.9721,-2.9299 -6.554,-4.394 -10.7541,-4.394 -3.7139,0 -7.05,1.2999 -10.0069,3.9058 -3.2541,2.8792 -4.8829,6.6521 -4.8829,11.3162" inkscape:connector-curvature="0"/><path id="path3011" style="fill:#ffffff;fill-opacity:1;fill-rule:nonzero;stroke:none" d="m 393.9854,337.045 0,-24.9973 -4.3438,0 0,24.9973 -6.6132,0 0,4.1332 17.5541,0 0,-4.1332 -6.5971,0 z" inkscape:connector-curvature="0"/><path id="path3013" style="fill:#ffffff;fill-opacity:1;fill-rule:nonzero;stroke:none" d="m 413.5989,337.045 0,-24.9973 -4.3455,0 0,24.9973 -6.6158,0 0,4.1332 17.5604,0 0,-4.1332 -6.5991,0 z" inkscape:connector-curvature="0"/><path id="path3015" style="fill:#ffffff;fill-opacity:1;fill-rule:nonzero;stroke:none" d="m 334.3915,304.0654 -4.8089,0 0,-2.9141 4.6678,0 0,-1.7234 -4.6678,0 0,-4.0536 4.8089,0 0,-1.7234 -6.6169,0 0,12.1351 6.6169,0 0,-1.7206 z" inkscape:connector-curvature="0"/><path id="path3017" style="fill:#ffffff;fill-opacity:1;fill-rule:nonzero;stroke:none" d="m 344.7584,303.9803 -1.465,-0.879 c -0.2769,0.4799 -0.5348,0.7971 -0.7849,0.9411 -0.2579,0.1678 -0.5941,0.254 -1,0.254 -0.504,0 -0.9221,-0.1452 -1.2541,-0.434 -0.3279,-0.2852 -0.496,-0.6401 -0.496,-1.0701 0,-0.5899 0.4382,-1.0661 1.305,-1.4301 l 1.1951,-0.496 c 0.9729,-0.398 1.6881,-0.8819 2.1371,-1.461 0.449,-0.5701 0.676,-1.273 0.676,-2.105 0,-1.1169 -0.3682,-2.039 -1.1021,-2.77 -0.7421,-0.7299 -1.66,-1.097 -2.7581,-1.097 -1.0389,0 -1.8978,0.3081 -2.5778,0.9331 -0.6682,0.6251 -1.086,1.5001 -1.2501,2.6328 l 1.832,0.4102 c 0.0819,-0.7152 0.2271,-1.207 0.434,-1.476 0.375,-0.5281 0.9179,-0.7891 1.6331,-0.7891 0.5618,0 1.0309,0.191 1.4059,0.574 0.3711,0.3832 0.5579,0.8671 0.5579,1.453 0,0.2381 -0.0349,0.453 -0.1009,0.6452 -0.0629,0.199 -0.1639,0.3818 -0.305,0.5428 -0.133,0.167 -0.3079,0.324 -0.527,0.464 -0.2151,0.1491 -0.4771,0.2861 -0.7781,0.4182 l -1.156,0.485 c -1.6398,0.703 -2.461,1.7299 -2.461,3.0818 0,0.9142 0.3441,1.6761 1.0352,2.289 0.688,0.6171 1.5429,0.926 2.5668,0.926 1.383,0 2.465,-0.68 3.238,-2.0429" inkscape:connector-curvature="0"/><path id="path3019" style="fill:#ffffff;fill-opacity:1;fill-rule:nonzero;stroke:none" d="m 355.2466,303.9803 -1.4681,-0.879 c -0.2741,0.4799 -0.536,0.7971 -0.7821,0.9411 -0.261,0.1678 -0.593,0.254 -1.004,0.254 -0.5,0 -0.917,-0.1452 -1.2498,-0.434 -0.3322,-0.2852 -0.496,-0.6401 -0.496,-1.0701 0,-0.5899 0.4339,-1.0661 1.305,-1.4301 l 1.1948,-0.496 c 0.9732,-0.398 1.6841,-0.8819 2.1371,-1.461 0.449,-0.5701 0.676,-1.273 0.676,-2.105 0,-1.1169 -0.371,-2.039 -1.1061,-2.77 -0.7378,-0.7299 -1.656,-1.097 -2.753,-1.097 -1.0428,0 -1.9029,0.3081 -2.5789,0.9331 -0.6679,0.6251 -1.086,1.5001 -1.2501,2.6328 l 1.832,0.4102 c 0.082,-0.7152 0.2271,-1.207 0.434,-1.476 0.3711,-0.5281 0.9182,-0.7891 1.6331,-0.7891 0.5621,0 1.0309,0.191 1.402,0.574 0.375,0.3832 0.559,0.8671 0.559,1.453 0,0.2381 -0.0309,0.453 -0.0981,0.6452 -0.0618,0.199 -0.1639,0.3818 -0.305,0.5428 -0.1318,0.167 -0.3079,0.324 -0.527,0.464 -0.2188,0.1491 -0.4759,0.2861 -0.777,0.4182 l -1.1568,0.485 c -1.6401,0.703 -2.4602,1.7299 -2.4602,3.0818 0,0.9142 0.343,1.6761 1.031,2.289 0.6871,0.6171 1.5471,0.926 2.5702,0.926 1.383,0 2.461,-0.68 3.238,-2.0429" inkscape:connector-curvature="0"/><path id="path3021" style="fill:#ffffff;fill-opacity:1;fill-rule:nonzero;stroke:none" d="m 365.5715,304.0654 -4.809,0 0,-2.9141 4.6681,0 0,-1.7234 -4.6681,0 0,-4.0536 4.809,0 0,-1.7234 -6.6181,0 0,12.1351 6.6181,0 0,-1.7206 z" inkscape:connector-curvature="0"/><path id="path3023" style="fill:#ffffff;fill-opacity:1;fill-rule:nonzero;stroke:none" d="m 369.1604,293.6509 0,12.96 8.7472,-9.258 0,8.4331 1.8079,0 0,-12.875 -8.742,9.2353 0,-8.4954 -1.8131,0 z" inkscape:connector-curvature="0"/><path id="path3025" style="fill:#000000;fill-opacity:1;fill-rule:nonzero;stroke:none" d="m 255.7074,323.2562 -4.2689,9.902 -4.4731,-9.902 8.742,0 z" inkscape:connector-curvature="0"/><path id="path3027" style="fill:#000000;fill-opacity:1;fill-rule:nonzero;stroke:none" d="m 272.9696,326.6901 c 0,-3.219 1.0698,-5.868 3.2068,-7.9418 2.1251,-2.0742 4.578,-3.1131 7.359,-3.1131 3.0201,0 5.567,1.0548 7.6451,3.168 2.0741,2.1399 3.109,4.7418 3.109,7.812 0,3.106 -1.023,5.707 -3.0739,7.8089 -2.0392,2.113 -4.5581,3.168 -7.5662,3.168 -2.992,0 -5.5239,-1.055 -7.5858,-3.168 -2.0631,-2.086 -3.094,-4.6638 -3.094,-7.734" inkscape:connector-curvature="0"/><path id="path3029" style="fill:#000000;fill-opacity:1;fill-rule:nonzero;stroke:none" d="m 333.2004,327.9552 1.6211,0 c 3.9881,0 5.98,1.5508 5.98,4.6559 0,3.0081 -2.0551,4.5122 -6.1679,4.5122 l -1.4332,0 0,-9.1681 z" inkscape:connector-curvature="0"/><path id="path3031" style="fill:#000000;fill-opacity:1;fill-rule:nonzero;stroke:none" d="m 353.6495,326.6901 c 0,-3.219 1.0701,-5.868 3.2069,-7.9418 2.1211,-2.0742 4.5782,-3.1131 7.359,-3.1131 3.02,0 5.567,1.0548 7.6411,3.168 2.0741,2.1399 3.113,4.7418 3.113,7.812 0,3.106 -1.027,5.707 -3.0739,7.8089 -2.039,2.113 -4.5632,3.168 -7.5671,3.168 -2.9959,0 -5.523,-1.055 -7.5861,-3.168 -2.0619,-2.086 -3.0929,-4.6638 -3.0929,-7.734" inkscape:connector-curvature="0"/><path id="path3033" style="fill:#ffffff;fill-opacity:1;fill-rule:nonzero;stroke:#000000;stroke-width:0.56690001;stroke-linecap:butt;stroke-linejoin:miter;stroke-miterlimit:22.92558479;stroke-opacity:1;stroke-dasharray:none" d="m 343.1234,421.6598 c -1.3587,-1.5248 -2.3505,-3.373 -2.8001,-5.3771 l -24.2691,-46.6064 -0.1191,0 0.1004,14.5528 -9.7999,6.5002 -0.9032,12.7958 -3.797,22.813 -3.7958,-22.7928 -0.9032,-12.801 -9.801,-6.5001 0.1015,-14.5721 -2.4174,-3e-4 0.004,102.4393 -2.3828,-0.023 -0.0122,28.7929 -2.402,0.019 0,-28.7889 -4.023,-0.0428 0,-4.2611 c -16.6529,0.129 -28.2498,0.836 -9.375,-3.668 0.648,-0.157 2.2422,-0.555 0.718,-1.4961 -4.8038,-0.0428 -9.6749,-0.7778 -14.5148,-2.141 l 0.1639,-76.4019 -8.1839,-0.0202 -0.1871,25.6921 -3.8951,0 -0.6908,61.5351 12.801,-0.0162 0.007,4.0003 -6.418,0.0158 0.008,15.1909 6.3992,-0.008 0.007,7.2071 -3.2029,-0.004 0,-3.992 -8.8041,-0.004 0,20.0041 -2.399,-0.0111 -0.801,40.8079 -1.605,0 -0.7929,-40.8011 -2.406,0 0.0941,-19.9919 -9.739,0 -0.004,3.996 -3.121,-0.015 -0.019,-7.1799 7.1952,-0.008 0.008,-15.1948 -7.215,-0.004 0.008,-3.992 13.5901,-0.0201 -0.7931,-61.515 -3.9731,0 0.1452,-40.1085 -34.9246,-0.005 30.2485,12.7188 -0.1411,10.7767 c -33.2728,-8.7457 -41.3669,-10.929 -76.1519,-2.9097 l 0,-12.5972 18.6437,-7.9926 -25.1444,-0.004 c -5.3711,16.2669 -8.2803,33.6544 -8.2803,51.7224 0,45.5187 18.447,86.7251 48.2729,116.551 29.8261,29.8261 71.0325,48.2729 116.5512,48.2729 45.5188,0 86.7252,-18.4468 116.551,-48.2729 29.8262,-29.8259 48.2729,-71.0323 48.2729,-116.551 0,-18.051 -2.9038,-35.4229 -8.265,-51.6767 l -5.4569,-9e-4 0,25.0365 -18.1021,0 0,-25.039 -2.4403,-3e-4 -29.2621,62.3066 c 2.5353,2.6601 3.8534,6.4585 3.3273,10.1316 0,0 0,0.004 0,0.004 0,0 0,0 0,0 -0.2968,2.3009 -1.2659,4.5147 -2.766,6.285 -0.004,0 -0.004,0 -0.004,0 -1.1942,1.4482 -2.7238,2.582 -4.4206,3.3428 l -0.0513,8.106 c 0.9411,4.176 7.8429,4.176 19.648,4.176 l 0,8.699 -81.125,-0.097 0.023,-8.602 c 9.8949,0 19.5899,-0.125 18.5791,-4.449 l 0,-7.3496 c -4.2338,-1.3831 -7.6263,-5.1585 -8.356,-9.5925 0,0 0,-0.004 -0.004,-0.004 -0.758,-3.992 0.6562,-8.2567 3.598,-11.0429 0,-0.003 0,-0.003 0,-0.003 0.1261,-0.1236 0.2548,-0.2438 0.3861,-0.3612 l -4.9901,-9.5833 z m 21.7893,-7.2167 c -0.0184,0.2296 -0.0436,0.4589 -0.0762,0.6879 0,0 -0.004,0.004 -0.004,0.004 0,0 0,0 0,0 -0.2971,2.3009 -1.2611,4.5147 -2.7649,6.285 0,0 -0.004,0 -0.004,0 -1.343,1.6279 -3.1087,2.8587 -5.0593,3.609 l 1.5789,3.2996 c 1.5546,0.2653 3.0583,0.8257 4.4022,1.6962 0.004,0.004 0.004,0.004 0.007,0.008 0.1523,0.0916 0.3019,0.1871 0.4493,0.2852 l 19.6929,0 c 0.8198,-0.5593 1.7076,-1.0125 2.6359,-1.3589 0.671,-0.2498 1.3638,-0.4428 2.0676,-0.5777 l 1.4559,-3.134 c -4.2355,-1.3822 -7.6298,-5.1585 -8.3597,-9.5936 -0.004,0 -0.004,-0.004 -0.004,-0.004 -0.076,-0.4002 -0.1296,-0.803 -0.1628,-1.2069 l -15.855,0 z m 3.8089,28.0281 c -0.3475,2.1798 -1.2906,4.2653 -2.7212,5.9491 0,0 -0.004,0 -0.004,0 -1.8385,2.2297 -4.4705,3.7139 -7.285,4.2394 l 0,8.2095 30.0002,0 0,-8.1009 c -0.1854,-0.0252 -0.3677,-0.0538 -0.5511,-0.0862 -0.003,0 -0.007,0 -0.007,0 -5.055,-0.7738 -9.3478,-4.9731 -10.184,-10.0281 0,0 0,-0.004 0,-0.004 l -0.0326,-0.1788 -9.2152,0 z" inkscape:connector-curvature="0"/><path id="path3035" style="fill:#ffffff;fill-opacity:1;fill-rule:nonzero;stroke:#000000;stroke-width:0.53259999;stroke-linecap:butt;stroke-linejoin:miter;stroke-miterlimit:22.92558479;stroke-opacity:1;stroke-dasharray:none" d="m 362.1574,420.4431 c 0.5072,-0.691 0.9332,-1.4411 1.2771,-2.226 l -9.078,-3.7619 7.8009,5.9879 z" inkscape:connector-curvature="0"/><path id="path3037" style="fill:#ffffff;fill-opacity:1;fill-rule:nonzero;stroke:#000000;stroke-width:0.53259999;stroke-linecap:butt;stroke-linejoin:miter;stroke-miterlimit:22.92558479;stroke-opacity:1;stroke-dasharray:none" d="m 359.9694,422.7293 c 0.6171,-0.4893 1.184,-1.0392 1.688,-1.6492 l 0,-0.004 c 0.0581,-0.07 0.1171,-0.14 0.1752,-0.2109 l -8.0042,-6.1401 6.141,8.0042 z" inkscape:connector-curvature="0"/><path id="path3039" style="fill:#ffffff;fill-opacity:1;fill-rule:nonzero;stroke:#000000;stroke-width:0.53259999;stroke-linecap:butt;stroke-linejoin:miter;stroke-miterlimit:22.92558479;stroke-opacity:1;stroke-dasharray:none" d="m 357.2705,424.3422 c 0.8011,-0.3481 1.5659,-0.7809 2.2731,-1.2932 l -6.1092,-7.9608 3.8361,9.254 z" inkscape:connector-curvature="0"/><path id="path3041" style="fill:#ffffff;fill-opacity:1;fill-rule:nonzero;stroke:#000000;stroke-width:0.53259999;stroke-linecap:butt;stroke-linejoin:miter;stroke-miterlimit:22.92558479;stroke-opacity:1;stroke-dasharray:none" d="m 387.555,428.9907 c -0.5352,0.1202 -1.0621,0.2756 -1.5775,0.4644 l 0.3572,0.8631 0.6038,0 0.6165,-1.3275 z" inkscape:connector-curvature="0"/><path id="path3043" style="fill:#ffffff;fill-opacity:1;fill-rule:nonzero;stroke:#000000;stroke-width:0.53259999;stroke-linecap:butt;stroke-linejoin:miter;stroke-miterlimit:22.92558479;stroke-opacity:1;stroke-dasharray:none" d="m 385.7579,430.3182 -0.2764,-0.6681 c -0.4618,0.1953 -0.9108,0.4175 -1.3431,0.6681 l 1.6195,0 z" inkscape:connector-curvature="0"/><path id="path3045" style="fill:#ffffff;fill-opacity:1;fill-rule:nonzero;stroke:#000000;stroke-width:0.53259999;stroke-linecap:butt;stroke-linejoin:miter;stroke-miterlimit:22.92558479;stroke-opacity:1;stroke-dasharray:none" d="m 379.0826,444.7052 5.3923,-2.234 -5.9973,0 0.0148,0.0859 0.004,0.004 c 0.1208,0.7382 0.3209,1.4531 0.586,2.1442 z" inkscape:connector-curvature="0"/><path id="path3047" style="fill:#ffffff;fill-opacity:1;fill-rule:nonzero;stroke:#000000;stroke-width:0.53259999;stroke-linecap:butt;stroke-linejoin:miter;stroke-miterlimit:22.92558479;stroke-opacity:1;stroke-dasharray:none" d="m 380.5716,447.404 6.4278,-4.9328 -1.1355,0 -6.5784,2.7221 c 0.3481,0.7818 0.7781,1.5199 1.2861,2.2107 z" inkscape:connector-curvature="0"/><path id="path3049" style="fill:#ffffff;fill-opacity:1;fill-rule:nonzero;stroke:#000000;stroke-width:0.53259999;stroke-linecap:butt;stroke-linejoin:miter;stroke-miterlimit:22.92558479;stroke-opacity:1;stroke-dasharray:none" d="m 382.7424,449.6783 5.5301,-7.2071 -0.3478,0 -7.0101,5.379 c 0.5428,0.6718 1.1568,1.2849 1.8278,1.8281 z" inkscape:connector-curvature="0"/><path id="path3051" style="fill:#ffffff;fill-opacity:1;fill-rule:nonzero;stroke:#000000;stroke-width:0.53259999;stroke-linecap:butt;stroke-linejoin:miter;stroke-miterlimit:22.92558479;stroke-opacity:1;stroke-dasharray:none" d="m 385.3604,451.2951 3.3512,-8.0838 0,-0.4337 -5.5472,7.2286 c 0.684,0.504 1.4222,0.9409 2.196,1.2889 z" inkscape:connector-curvature="0"/><path id="path3053" style="fill:#ffffff;fill-opacity:1;fill-rule:nonzero;stroke:#000000;stroke-width:0.53259999;stroke-linecap:butt;stroke-linejoin:miter;stroke-miterlimit:22.92558479;stroke-opacity:1;stroke-dasharray:none" d="m 388.3484,452.1742 0.3632,-2.7641 0,-4.8115 -2.8591,6.9074 c 0.7651,0.3011 1.5659,0.523 2.3871,0.648 l 0.007,0 c 0.036,0.008 0.0672,0.0122 0.102,0.0202 z" inkscape:connector-curvature="0"/><path id="path3055" style="fill:#ffffff;fill-opacity:1;fill-rule:nonzero;stroke:#000000;stroke-width:0.53259999;stroke-linecap:butt;stroke-linejoin:miter;stroke-miterlimit:22.92558479;stroke-opacity:1;stroke-dasharray:none" d="m 360.7875,430.3182 1.6594,0 c -0.4408,-0.2676 -0.8975,-0.5006 -1.3683,-0.703 l -0.2911,0.703 z" inkscape:connector-curvature="0"/><path id="path3057" style="fill:#ffffff;fill-opacity:1;fill-rule:nonzero;stroke:#000000;stroke-width:0.53259999;stroke-linecap:butt;stroke-linejoin:miter;stroke-miterlimit:22.92558479;stroke-opacity:1;stroke-dasharray:none" d="m 358.8718,428.9312 0.6636,1.387 0.6738,0 0.3733,-0.902 c -0.5559,-0.2055 -1.1285,-0.3668 -1.7107,-0.485 z" inkscape:connector-curvature="0"/><path id="path3059" style="fill:#ffffff;fill-opacity:1;fill-rule:nonzero;stroke:#000000;stroke-width:0.53259999;stroke-linecap:butt;stroke-linejoin:miter;stroke-miterlimit:22.92558479;stroke-opacity:1;stroke-dasharray:none" d="m 358.7114,446.7186 0,5.3955 c 0.68,-0.1341 1.3481,-0.3232 1.9961,-0.5729 l -1.9961,-4.8226 z" inkscape:connector-curvature="0"/><path id="path3061" style="fill:#ffffff;fill-opacity:1;fill-rule:nonzero;stroke:#000000;stroke-width:0.53259999;stroke-linecap:butt;stroke-linejoin:miter;stroke-miterlimit:22.92558479;stroke-opacity:1;stroke-dasharray:none" d="m 358.7114,443.838 0,1.4922 2.4922,6.012 c 0.8008,-0.3481 1.567,-0.7809 2.2779,-1.2932 l -4.7701,-6.211 z" inkscape:connector-curvature="0"/><path id="path3063" style="fill:#ffffff;fill-opacity:1;fill-rule:nonzero;stroke:#000000;stroke-width:0.53259999;stroke-linecap:butt;stroke-linejoin:miter;stroke-miterlimit:22.92558479;stroke-opacity:1;stroke-dasharray:none" d="m 358.7352,442.4712 -0.0238,0 0,0.4907 5.1922,6.7674 c 0.6168,-0.4893 1.1829,-1.0392 1.6869,-1.6492 l 0,-0.004 c 0.0629,-0.07 0.1171,-0.14 0.176,-0.2109 l -7.0313,-5.394 z" inkscape:connector-curvature="0"/><path id="path3065" style="fill:#ffffff;fill-opacity:1;fill-rule:nonzero;stroke:#000000;stroke-width:0.53259999;stroke-linecap:butt;stroke-linejoin:miter;stroke-miterlimit:22.92558479;stroke-opacity:1;stroke-dasharray:none" d="m 360.7413,442.4712 -1.1282,0 6.4774,4.9719 c 0.508,-0.691 0.934,-1.4411 1.277,-2.226 l -6.6262,-2.7459 z" inkscape:connector-curvature="0"/><path id="path3067" style="fill:#ffffff;fill-opacity:1;fill-rule:nonzero;stroke:#000000;stroke-width:0.53259999;stroke-linecap:butt;stroke-linejoin:miter;stroke-miterlimit:22.92558479;stroke-opacity:1;stroke-dasharray:none" d="m 368.1799,442.4712 -6.0494,0 5.4369,2.2541 c 0.2772,-0.7305 0.4833,-1.4865 0.6125,-2.2541 z" inkscape:connector-curvature="0"/><path id="path3069" style="fill:#ffffff;fill-opacity:1;fill-rule:nonzero;stroke:#000000;stroke-width:0.53259999;stroke-linecap:butt;stroke-linejoin:miter;stroke-miterlimit:22.92558479;stroke-opacity:1;stroke-dasharray:none" d="m 398.5104,433.6359 0.5235,-1.1143 c 0.1279,0.1389 0.2523,0.2809 0.3736,0.4255 l -0.8971,0.6888 z" inkscape:connector-curvature="0"/><path id="path3071" style="fill:#ffffff;fill-opacity:1;fill-rule:nonzero;stroke:#000000;stroke-width:0.53259999;stroke-linecap:butt;stroke-linejoin:miter;stroke-miterlimit:22.92558479;stroke-opacity:1;stroke-dasharray:none" d="m 396.7498,437.3847 1.2362,-2.632 1.7725,-1.3595 c 0.5159,0.6829 0.9609,1.4219 1.3201,2.1989 l -4.3288,1.7926 z" inkscape:connector-curvature="0"/><path id="path3073" style="fill:#ffffff;fill-opacity:1;fill-rule:nonzero;stroke:#000000;stroke-width:0.53259999;stroke-linecap:butt;stroke-linejoin:miter;stroke-miterlimit:22.92558479;stroke-opacity:1;stroke-dasharray:none" d="m 395.8024,439.4018 0.6112,-1.3008 4.8758,-2.0208 c 0.332,0.805 0.578,1.6489 0.7271,2.5038 l -6.2141,0.8178 z" inkscape:connector-curvature="0"/><path id="path3075" style="fill:#ffffff;fill-opacity:1;fill-rule:nonzero;stroke:#000000;stroke-width:0.53259999;stroke-linecap:butt;stroke-linejoin:miter;stroke-miterlimit:22.92558479;stroke-opacity:1;stroke-dasharray:none" d="m 395.4847,440.8481 0.005,-0.7798 0.0428,-0.0916 6.5662,-0.8654 c 0.1091,0.864 0.121,1.7387 0.0229,2.6098 l -6.6367,-0.873 z" inkscape:connector-curvature="0"/><path id="path3077" style="fill:#ffffff;fill-opacity:1;fill-rule:nonzero;stroke:#000000;stroke-width:0.53259999;stroke-linecap:butt;stroke-linejoin:miter;stroke-miterlimit:22.92558479;stroke-opacity:1;stroke-dasharray:none" d="m 395.4756,442.266 0.006,-0.883 6.5741,0.8651 c -0.125,0.8442 -0.3439,1.6761 -0.648,2.4772 l -5.9318,-2.4593 z" inkscape:connector-curvature="0"/><path id="path3079" style="fill:#ffffff;fill-opacity:1;fill-rule:nonzero;stroke:#000000;stroke-width:0.53259999;stroke-linecap:butt;stroke-linejoin:miter;stroke-miterlimit:22.92558479;stroke-opacity:1;stroke-dasharray:none" d="m 395.4645,444.0152 0.007,-1.1744 5.7317,2.3763 c -0.3391,0.7849 -0.7691,1.535 -1.2731,2.226 l -4.466,-3.4279 z" inkscape:connector-curvature="0"/><path id="path3081" style="fill:#ffffff;fill-opacity:1;fill-rule:nonzero;stroke:#000000;stroke-width:0.53259999;stroke-linecap:butt;stroke-linejoin:miter;stroke-miterlimit:22.92558479;stroke-opacity:1;stroke-dasharray:none" d="m 395.4472,446.7373 0.0131,-2.0528 4.1462,3.1807 c -0.0589,0.0709 -0.1171,0.1409 -0.176,0.2109 l -0.004,0.004 c -0.5,0.61 -1.0661,1.1599 -1.684,1.6492 l -2.2953,-2.992 z" inkscape:connector-curvature="0"/><path id="path3083" style="fill:#ffffff;fill-opacity:1;fill-rule:nonzero;stroke:#000000;stroke-width:0.53259999;stroke-linecap:butt;stroke-linejoin:miter;stroke-miterlimit:22.92558479;stroke-opacity:1;stroke-dasharray:none" d="m 395.4195,451.1704 0.0224,-3.5651 1.8756,2.4437 c -0.5949,0.4312 -1.2313,0.8059 -1.898,1.1214 z" inkscape:connector-curvature="0"/><path id="path3085" style="fill:#ffffff;fill-opacity:1;fill-rule:nonzero;stroke:#000000;stroke-width:0.53259999;stroke-linecap:butt;stroke-linejoin:miter;stroke-miterlimit:22.92558479;stroke-opacity:1;stroke-dasharray:none" d="m 352.4896,450.3546 0,1.3263 c -0.1602,-0.0547 -0.3192,-0.1131 -0.4771,-0.1749 l 0.4771,-1.1514 z" inkscape:connector-curvature="0"/><path id="path3087" style="fill:#ffffff;fill-opacity:1;fill-rule:nonzero;stroke:#000000;stroke-width:0.53259999;stroke-linecap:butt;stroke-linejoin:miter;stroke-miterlimit:22.92558479;stroke-opacity:1;stroke-dasharray:none" d="m 352.4896,445.8824 0,3.0818 -0.9652,2.3309 c -0.7778,-0.348 -1.512,-0.7849 -2.1988,-1.2889 l 3.164,-4.1238 z" inkscape:connector-curvature="0"/><path id="path3089" style="fill:#ffffff;fill-opacity:1;fill-rule:nonzero;stroke:#000000;stroke-width:0.53259999;stroke-linecap:butt;stroke-linejoin:miter;stroke-miterlimit:22.92558479;stroke-opacity:1;stroke-dasharray:none" d="m 352.4896,443.696 0,1.3077 -3.5861,4.6746 c -0.6681,-0.5432 -1.2821,-1.1563 -1.8249,-1.8281 l 5.411,-4.1542 z" inkscape:connector-curvature="0"/><path id="path3091" style="fill:#ffffff;fill-opacity:1;fill-rule:nonzero;stroke:#000000;stroke-width:0.53259999;stroke-linecap:butt;stroke-linejoin:miter;stroke-miterlimit:22.92558479;stroke-opacity:1;stroke-dasharray:none" d="m 352.4896,442.2793 0,0.7064 -5.758,4.4183 c -0.504,-0.6908 -0.938,-1.4289 -1.281,-2.2107 l 7.039,-2.914 z" inkscape:connector-curvature="0"/><path id="path3093" style="fill:#ffffff;fill-opacity:1;fill-rule:nonzero;stroke:#000000;stroke-width:0.53259999;stroke-linecap:butt;stroke-linejoin:miter;stroke-miterlimit:22.92558479;stroke-opacity:1;stroke-dasharray:none" d="m 352.4896,441.1877 0,0.5164 -7.247,3.0011 c -0.2651,-0.6911 -0.4641,-1.406 -0.5851,-2.1442 l 0,-0.004 c -0.0241,-0.11 -0.04,-0.2228 -0.059,-0.332 l 7.8911,-1.0374 z" inkscape:connector-curvature="0"/><path id="path3095" style="fill:#ffffff;fill-opacity:1;fill-rule:nonzero;stroke:#000000;stroke-width:0.53259999;stroke-linecap:butt;stroke-linejoin:miter;stroke-miterlimit:22.92558479;stroke-opacity:1;stroke-dasharray:none" d="m 352.4896,440.1768 0,0.4711 -7.9611,1.0491 c -0.0941,-0.8509 -0.0859,-1.7149 0.015,-2.5659 l 7.9461,1.0457 z" inkscape:connector-curvature="0"/><path id="path3097" style="fill:#ffffff;fill-opacity:1;fill-rule:nonzero;stroke:#000000;stroke-width:0.53259999;stroke-linecap:butt;stroke-linejoin:miter;stroke-miterlimit:22.92558479;stroke-opacity:1;stroke-dasharray:none" d="m 352.0967,438.8927 0.3901,0.7489 -7.8693,-1.0374 c 0.1449,-0.8601 0.383,-1.7071 0.7081,-2.5161 l 6.7711,2.8046 z" inkscape:connector-curvature="0"/><path id="path3099" style="fill:#ffffff;fill-opacity:1;fill-rule:nonzero;stroke:#000000;stroke-width:0.53259999;stroke-linecap:butt;stroke-linejoin:miter;stroke-miterlimit:22.92558479;stroke-opacity:1;stroke-dasharray:none" d="m 350.7809,436.3656 0.9323,1.7904 -6.1778,-2.56 c 0.36,-0.7889 0.805,-1.5389 1.332,-2.2348 l 3.9135,3.0044 z" inkscape:connector-curvature="0"/><path id="path3101" style="fill:#ffffff;fill-opacity:1;fill-rule:nonzero;stroke:#000000;stroke-width:0.53259999;stroke-linecap:butt;stroke-linejoin:miter;stroke-miterlimit:22.92558479;stroke-opacity:1;stroke-dasharray:none" d="m 348.3675,431.7307 1.8334,3.5212 -3.0044,-2.3048 c 0.2809,-0.336 0.5819,-0.656 0.898,-0.957 l 0.004,-0.004 c 0.0881,-0.087 0.178,-0.1723 0.269,-0.2554 z" inkscape:connector-curvature="0"/><path id="path3103" style="fill:#ffffff;fill-opacity:1;fill-rule:nonzero;stroke:#000000;stroke-width:0.53259999;stroke-linecap:butt;stroke-linejoin:miter;stroke-miterlimit:22.92558479;stroke-opacity:1;stroke-dasharray:none" d="m 381.3284,414.697 1.9267,-0.2539 -1.9513,0 c 0.007,0.0847 0.0153,0.1695 0.0246,0.2539 z" inkscape:connector-curvature="0"/><path id="path3105" style="fill:#ffffff;fill-opacity:1;fill-rule:nonzero;stroke:#000000;stroke-width:0.53259999;stroke-linecap:butt;stroke-linejoin:miter;stroke-miterlimit:22.92558479;stroke-opacity:1;stroke-dasharray:none" d="m 382.0436,417.7052 7.8741,-3.2621 -2.5724,0 -5.9457,0.782 c 0.015,0.1092 0.0349,0.222 0.0578,0.332 l 0,0.004 c 0.1211,0.7382 0.3212,1.4531 0.5862,2.1442 z" inkscape:connector-curvature="0"/><path id="path3107" style="fill:#ffffff;fill-opacity:1;fill-rule:nonzero;stroke:#000000;stroke-width:0.53259999;stroke-linecap:butt;stroke-linejoin:miter;stroke-miterlimit:22.92558479;stroke-opacity:1;stroke-dasharray:none" d="m 383.5324,420.404 7.757,-5.9527 -9.0428,3.742 c 0.3478,0.7818 0.7818,1.5199 1.2858,2.2107 z" inkscape:connector-curvature="0"/><path id="path3109" style="fill:#ffffff;fill-opacity:1;fill-rule:nonzero;stroke:#000000;stroke-width:0.53259999;stroke-linecap:butt;stroke-linejoin:miter;stroke-miterlimit:22.92558479;stroke-opacity:1;stroke-dasharray:none" d="m 385.7034,422.6783 6.0282,-7.8563 -7.8562,6.0282 c 0.5431,0.6718 1.1602,1.2849 1.828,1.8281 z" inkscape:connector-curvature="0"/><path id="path3111" style="fill:#ffffff;fill-opacity:1;fill-rule:nonzero;stroke:#000000;stroke-width:0.53259999;stroke-linecap:butt;stroke-linejoin:miter;stroke-miterlimit:22.92558479;stroke-opacity:1;stroke-dasharray:none" d="m 388.3215,424.2951 3.742,-9.0269 -5.938,7.738 c 0.684,0.504 1.4219,0.9409 2.196,1.2889 z" inkscape:connector-curvature="0"/><path id="path3113" style="fill:#ffffff;fill-opacity:1;fill-rule:nonzero;stroke:#000000;stroke-width:0.53259999;stroke-linecap:butt;stroke-linejoin:miter;stroke-miterlimit:22.92558479;stroke-opacity:1;stroke-dasharray:none" d="m 393.7927,415.5639 -0.1001,-0.2418 0.0468,0.3563 0.0533,-0.1145 z" inkscape:connector-curvature="0"/><path id="path3115" style="fill:#ffffff;fill-opacity:1;fill-rule:nonzero;stroke:#000000;stroke-width:0.53259999;stroke-linecap:butt;stroke-linejoin:miter;stroke-miterlimit:22.92558479;stroke-opacity:1;stroke-dasharray:none" d="m 392.0939,419.2209 0.5085,-3.8597 -3.7888,9.1448 c 0.2336,0.0916 0.4694,0.1752 0.7081,0.2518 l 2.5722,-5.5369 z" inkscape:connector-curvature="0"/><path id="path3117" style="fill:#ffffff;fill-opacity:1;fill-rule:nonzero;stroke:#000000;stroke-width:0.53259999;stroke-linecap:butt;stroke-linejoin:miter;stroke-miterlimit:22.92558479;stroke-opacity:1;stroke-dasharray:none" d="m 393.3201,416.5815 -0.1706,-1.2983 -0.3062,2.3242 0.4768,-1.0259 z" inkscape:connector-curvature="0"/><path id="path3119" style="fill:#ffffff;fill-opacity:1;fill-rule:nonzero;stroke:#000000;stroke-width:0.53259999;stroke-linecap:butt;stroke-linejoin:miter;stroke-miterlimit:22.92558479;stroke-opacity:1;stroke-dasharray:none" d="m 353.1847,417.0472 3.5866,7.4951 0.003,-0.001 -3.8169,-9.2191 0.2271,1.7251 z" inkscape:connector-curvature="0"/><path id="path3121" style="fill:#ffffff;fill-opacity:1;fill-rule:nonzero;stroke:#000000;stroke-width:0.53259999;stroke-linecap:butt;stroke-linejoin:miter;stroke-miterlimit:22.92558479;stroke-opacity:1;stroke-dasharray:none" d="m 352.3986,415.4043 0.044,0.0918 -0.0281,-0.2129 -0.0159,0.1211 z" inkscape:connector-curvature="0"/><path id="path3123" style="fill:#ffffff;fill-opacity:1;fill-rule:nonzero;stroke:#000000;stroke-width:0.53259999;stroke-linecap:butt;stroke-linejoin:miter;stroke-miterlimit:22.92558479;stroke-opacity:1;stroke-dasharray:none" d="m 358.1651,414.4431 -2.4482,0 7.9165,3.2822 c 0.3051,-0.8011 0.5242,-1.633 0.6492,-2.4772 l -6.1175,-0.805 z" inkscape:connector-curvature="0"/><path id="path3125" style="fill:#ffffff;fill-opacity:1;fill-rule:nonzero;stroke:#000000;stroke-width:0.53259999;stroke-linecap:butt;stroke-linejoin:miter;stroke-miterlimit:22.92558479;stroke-opacity:1;stroke-dasharray:none" d="m 364.3761,414.4431 -2.1415,0 2.114,0.278 c 0.0105,-0.0927 0.0196,-0.1854 0.0275,-0.278 z" inkscape:connector-curvature="0"/><path id="path3127" style="fill:#ffffff;fill-opacity:1;fill-rule:nonzero;stroke:#000000;stroke-width:0.53259999;stroke-linecap:butt;stroke-linejoin:miter;stroke-miterlimit:22.92558479;stroke-opacity:1;stroke-dasharray:none" d="m 393.7765,406.4431 0.6191,-4.7029 c -0.828,-0.074 -1.6642,-0.0661 -2.4922,0.0241 l 0.6176,4.6788 1.2555,0 z" inkscape:connector-curvature="0"/><path id="path3129" style="fill:#ffffff;fill-opacity:1;fill-rule:nonzero;stroke:#000000;stroke-width:0.53259999;stroke-linecap:butt;stroke-linejoin:miter;stroke-miterlimit:22.92558479;stroke-opacity:1;stroke-dasharray:none" d="m 395.7163,406.4431 1.6673,-4.0269 c -0.7931,-0.2931 -1.6211,-0.496 -2.461,-0.6131 l -0.6106,4.64 1.4043,0 z" inkscape:connector-curvature="0"/><path id="path3131" style="fill:#ffffff;fill-opacity:1;fill-rule:nonzero;stroke:#000000;stroke-width:0.53259999;stroke-linecap:butt;stroke-linejoin:miter;stroke-miterlimit:22.92558479;stroke-opacity:1;stroke-dasharray:none" d="m 391.9833,406.4431 -0.6077,-4.6131 c -0.832,0.125 -1.6481,0.3362 -2.437,0.6251 l 1.048,2.5319 1.5675,1.4561 0.4292,0 z" inkscape:connector-curvature="0"/><path id="path3133" style="fill:#ffffff;fill-opacity:1;fill-rule:nonzero;stroke:#000000;stroke-width:0.53259999;stroke-linecap:butt;stroke-linejoin:miter;stroke-miterlimit:22.92558479;stroke-opacity:1;stroke-dasharray:none" d="m 387.3733,402.5591 c 0.4402,-0.2265 0.8941,-0.4266 1.3581,-0.5998 3.5382,-1.317 7.6714,-1.0551 10.9117,0.9754 l 15.4505,-33.2439 -15.1041,-0.002 0.0541,22.7518 -12.3471,0 0,5.3348 -5.4715,0.001 5.1483,4.7826 z" inkscape:connector-curvature="0"/><path id="path3135" style="fill:#ffffff;fill-opacity:1;fill-rule:nonzero;stroke:#000000;stroke-width:0.53259999;stroke-linecap:butt;stroke-linejoin:miter;stroke-miterlimit:22.92558479;stroke-opacity:1;stroke-dasharray:none" d="m 353.5773,406.4431 0.7591,0 1.0434,-0.9609 1.2696,-3.066 c -0.7928,-0.2931 -1.6208,-0.496 -2.461,-0.6131 l -0.6111,4.64 z" inkscape:connector-curvature="0"/><path id="path3137" style="fill:#ffffff;fill-opacity:1;fill-rule:nonzero;stroke:#000000;stroke-width:0.53259999;stroke-linecap:butt;stroke-linejoin:miter;stroke-miterlimit:22.92558479;stroke-opacity:1;stroke-dasharray:none" d="m 351.788,406.4431 1.2535,0 0.6191,-4.7029 c -0.828,-0.074 -1.6642,-0.0661 -2.488,0.0241 l 0.6154,4.6788 z" inkscape:connector-curvature="0"/><path id="path3139" style="fill:#ffffff;fill-opacity:1;fill-rule:nonzero;stroke:#000000;stroke-width:0.53259999;stroke-linecap:butt;stroke-linejoin:miter;stroke-miterlimit:22.92558479;stroke-opacity:1;stroke-dasharray:none" d="m 349.8548,406.4431 1.3963,0 -0.6057,-4.6131 c -0.832,0.125 -1.6529,0.3362 -2.4418,0.6251 l 1.6512,3.988 z" inkscape:connector-curvature="0"/><path id="path3141" style="fill:#ffffff;fill-opacity:1;fill-rule:nonzero;stroke:#000000;stroke-width:0.53259999;stroke-linecap:butt;stroke-linejoin:miter;stroke-miterlimit:22.92558479;stroke-opacity:1;stroke-dasharray:none" d="m 371.5804,397.7385 -8.6664,8.7046 20.0339,0 0.036,-0.0513 -8.6423,-8.6131 -2.7612,-0.0402 z" inkscape:connector-curvature="0"/><path id="path3143" style="fill:none;stroke:#000000;stroke-width:0.53259999;stroke-linecap:butt;stroke-linejoin:miter;stroke-miterlimit:22.92558479;stroke-opacity:1;stroke-dasharray:none" d="M 371.5804,397.7385 z" inkscape:connector-curvature="0"/><path id="path3145" style="fill:#ffffff;fill-opacity:1;fill-rule:nonzero;stroke:#000000;stroke-width:0.53259999;stroke-linecap:butt;stroke-linejoin:miter;stroke-miterlimit:22.92558479;stroke-opacity:1;stroke-dasharray:none" d="m 363.7015,397.7425 0,0 -6.2051,0.0408 0,-5.343 -11.9409,-0.1021 -0.055,-22.6576 -15.0225,-0.002 15.8324,33.0563 c 0.5417,-0.3002 1.1058,-0.5585 1.686,-0.7753 3.3713,-1.2549 7.2831,-1.0761 10.4488,0.7001 l 5.2563,-4.9169 z" inkscape:connector-curvature="0"/><path id="path3147" style="fill:#ffffff;fill-opacity:1;fill-rule:nonzero;stroke:#000000;stroke-width:0.53259999;stroke-linecap:butt;stroke-linejoin:miter;stroke-miterlimit:22.92558479;stroke-opacity:1;stroke-dasharray:none" d="m 399.4155,403.4245 c -0.4896,-0.3127 -1.0038,-0.5805 -1.5361,-0.8093 l -1.5857,3.8279 1.7189,0 1.4029,-3.0186 z" inkscape:connector-curvature="0"/><path id="path3149" style="fill:#ffffff;fill-opacity:1;fill-rule:nonzero;stroke:#000000;stroke-width:0.53259999;stroke-linecap:butt;stroke-linejoin:miter;stroke-miterlimit:22.92558479;stroke-opacity:1;stroke-dasharray:none" d="m 389.0494,404.1162 -0.6068,-1.4661 c -0.22,0.093 -0.4369,0.1922 -0.6509,0.2976 l 1.2577,1.1685 z" inkscape:connector-curvature="0"/><path id="path3151" style="fill:#ffffff;fill-opacity:1;fill-rule:nonzero;stroke:#000000;stroke-width:0.53259999;stroke-linecap:butt;stroke-linejoin:miter;stroke-miterlimit:22.92558479;stroke-opacity:1;stroke-dasharray:none" d="m 356.3138,404.6221 1.7158,-1.58 c -0.2885,-0.1556 -0.5836,-0.2973 -0.8841,-0.4269 l -0.8317,2.0069 z" inkscape:connector-curvature="0"/><path id="path3153" style="fill:#ffffff;fill-opacity:1;fill-rule:nonzero;stroke:#000000;stroke-width:0.53259999;stroke-linecap:butt;stroke-linejoin:miter;stroke-miterlimit:22.92558479;stroke-opacity:1;stroke-dasharray:none" d="m 346.542,403.2179 1.5446,3.2252 1.1928,0 -1.5718,-3.793 c -0.3986,0.1689 -0.7881,0.3577 -1.1656,0.5678 z" inkscape:connector-curvature="0"/></g></g></svg>